<?xml version="1.0" encoding="utf-8"?>
<!-- Generator: Adobe Illustrator 16.0.0, SVG Export Plug-In . SVG Version: 6.00 Build 0)  -->
<!DOCTYPE svg PUBLIC "-//W3C//DTD SVG 1.1//EN" "http://www.w3.org/Graphics/SVG/1.1/DTD/svg11.dtd">
<svg version="1.1" id="Ebene_1" xmlns="http://www.w3.org/2000/svg" xmlns:xlink="http://www.w3.org/1999/xlink" x="0px" y="0px"
	 width="298.829px" height="28.744px" viewBox="0.436 -6.3 298.829 28.744" enable-background="new 0.436 -6.3 298.829 28.744"
	 xml:space="preserve">
<path fill="#FFFFFF" d="M142.046,3.994h-3.952V9.67h3.952c1.845,0,3.05-1.178,3.05-2.836C145.098,5.173,143.891,3.994,142.046,3.994
	 M145.309,21.748l-4.196-8.574h-3.019v8.574h-4.197V0.251h8.423c4.377,0,6.975,2.988,6.975,6.583c0,3.018-1.841,4.891-3.925,5.645
	l4.801,9.27H145.309L145.309,21.748z"/>
<polygon fill="#FFFFFF" points="90.957,0.252 87.002,8.918 82.985,0.252 78.43,0.252 84.889,12.934 84.889,21.748 89.057,21.748 
	89.057,12.934 95.518,0.252 "/>
<path fill="#FFFFFF" d="M106.77,4.961c-0.604-0.693-1.542-1.146-2.688-1.146c-1.147,0-2.113,0.453-2.718,1.146
	c-0.813,0.906-1.026,1.903-1.026,6.039c0,4.137,0.213,5.134,1.026,6.038c0.604,0.694,1.57,1.147,2.718,1.147
	c1.146,0,2.083-0.453,2.688-1.147c0.813-0.904,1.056-1.901,1.056-6.038C107.826,6.864,107.583,5.867,106.77,4.961 M109.879,19.575
	c-1.512,1.511-3.351,2.354-5.797,2.354c-2.445,0-4.316-0.846-5.828-2.354c-2.173-2.175-2.112-4.86-2.112-8.575
	c0-3.714-0.061-6.4,2.112-8.574c1.512-1.509,3.384-2.355,5.829-2.355c2.446,0,4.285,0.848,5.796,2.356
	c2.174,2.174,2.143,4.86,2.143,8.575C112.02,14.714,112.053,17.4,109.879,19.575"/>
<path fill="#FFFFFF" d="M123.178,21.839c-4.408,0-7.91-2.987-7.91-7.547V0.161h4.199v13.979c0,2.478,1.447,3.953,3.711,3.953
	c2.267,0,3.744-1.479,3.744-3.953V0.161h4.167v14.131C131.089,18.85,127.587,21.839,123.178,21.839"/>
<polygon fill="#FFFFFF" points="213.16,12.932 213.16,21.748 208.993,21.748 208.993,12.932 202.533,0.251 207.092,0.251 
	211.107,8.917 215.062,0.251 219.622,0.251 "/>
<path fill="#FFFFFF" d="M168.031,21.93c-2.355,0-4.288-0.846-5.797-2.354c-2.174-2.175-2.113-4.859-2.113-8.574
	s-0.061-6.401,2.113-8.575c1.509-1.509,3.441-2.354,5.797-2.354c4.016,0,7.155,2.295,7.909,6.794h-4.256
	c-0.424-1.721-1.51-3.05-3.623-3.05c-1.146,0-2.082,0.422-2.687,1.118c-0.815,0.905-1.058,1.932-1.058,6.069
	c0,4.136,0.242,5.164,1.058,6.067c0.604,0.695,1.539,1.117,2.687,1.117c2.113,0,3.199-1.33,3.623-3.049h4.256
	C175.186,19.635,172.016,21.93,168.031,21.93"/>
<rect x="178.486" y="0.252" fill="#FFFFFF" width="4.197" height="21.496"/>
<polygon fill="#FFFFFF" points="195.305,3.995 195.305,21.748 191.105,21.748 191.105,3.995 185.49,3.995 185.49,0.251 
	200.92,0.251 200.92,3.995 "/>
<path fill="#2F3536" d="M12.254,9.519V1.081h3.227v19.836h-3.227v-8.64h-7.79v8.64H1.24V1.081h3.224v8.438H12.254z M11.451,0.277
	v8.437H5.269V0.277H0.436v21.446h4.833v-8.641h6.183v8.641h0.401h4.433V0.277H11.451z"/>
<path fill="#FFFFFF" d="M28.2,0.68h-3.16l-7.888,20.64h4.583l1.321-2.967l7.103-0.024l1.053,2.991h4.526L28.2,0.68z M29.07,14.8
	l-5.287-0.014l2.662-7.266L29.07,14.8z"/>
<g>
	<path fill="#2F3536" d="M43.332,21.495v-0.401c-2.164-0.005-3.896-0.767-5.278-2.144c-0.931-0.935-1.397-1.938-1.646-3.146
		c-0.25-1.207-0.266-2.611-0.266-4.248c0-0.183,0-0.367,0-0.554c0-0.188,0-0.373,0-0.555c0-1.638,0.015-3.041,0.265-4.247
		c0.25-1.207,0.717-2.214,1.646-3.146c1.383-1.378,3.115-2.142,5.278-2.144c1.854,0,3.473,0.525,4.719,1.55
		c1.242,1.023,2.132,2.556,2.48,4.638l0.398-0.066V6.627H46.84V7.03l0.392-0.097c-0.215-0.88-0.608-1.688-1.247-2.283
		c-0.639-0.597-1.524-0.955-2.621-0.953c-1.2-0.001-2.224,0.449-2.886,1.211l0.305,0.265l-0.302-0.27
		c-0.212,0.238-0.402,0.499-0.551,0.815c-0.227,0.475-0.364,1.056-0.449,1.88c-0.084,0.827-0.116,1.904-0.116,3.4
		c0.001,1.994,0.056,3.248,0.22,4.148c0.083,0.451,0.193,0.815,0.346,1.133c0.148,0.314,0.338,0.578,0.551,0.814l0.302-0.269
		l-0.305,0.264c0.662,0.765,1.686,1.214,2.886,1.211c1.096,0.003,1.982-0.354,2.621-0.952c0.639-0.597,1.031-1.404,1.247-2.283
		l-0.391-0.096v0.401h4.088v-0.399l-0.398-0.066c-0.349,2.08-1.243,3.611-2.491,4.637s-2.868,1.551-4.707,1.551v0.403l0.001,0.401
		c1.991,0.002,3.808-0.576,5.219-1.731c1.412-1.156,2.401-2.89,2.775-5.127l0.079-0.47h-4.88l-0.075,0.308
		c-0.189,0.772-0.522,1.431-1.015,1.886c-0.491,0.452-1.145,0.733-2.073,0.735c-1.005,0-1.78-0.362-2.278-0.935l-0.004-0.004v-0.002
		c-0.176-0.195-0.309-0.385-0.423-0.623c-0.17-0.354-0.295-0.838-0.374-1.615c-0.08-0.774-0.114-1.836-0.114-3.317
		c0-1.979,0.061-3.205,0.208-4.005c0.074-0.4,0.167-0.693,0.279-0.931c0.114-0.237,0.247-0.425,0.423-0.623l0.005-0.004
		c0.498-0.571,1.273-0.933,2.279-0.935c0.927,0.003,1.58,0.283,2.072,0.737c0.492,0.453,0.825,1.109,1.016,1.884l0.075,0.308h4.88
		l-0.079-0.47c-0.374-2.237-1.354-3.97-2.765-5.127c-1.409-1.157-3.227-1.733-5.229-1.733C40.979,0.099,39,0.961,37.485,2.481
		c-1.048,1.046-1.598,2.238-1.867,3.556c-0.271,1.318-0.28,2.767-0.28,4.409c-0.001,0.184,0,0.366,0,0.555
		c0,0.187-0.001,0.369-0.001,0.554c0.001,1.643,0.011,3.092,0.281,4.409c0.269,1.317,0.818,2.511,1.866,3.556
		c1.515,1.52,3.493,2.381,5.849,2.379L43.332,21.495L43.332,21.495z"/>
</g>
<path fill="#2F3536" d="M65.469,1.081h3.848l-6.473,7.763l7.12,12.075h-3.757l-5.476-9.696l-3.134,3.75v5.946h-3.226V1.081h3.226
	v9.723L65.469,1.081z M65.085,0.277L58.402,8.53V0.277h-4.836v21.446h4.836v-6.459l2.2-2.633l5.134,9.092h0.235h5.4L63.825,8.924
	l7.21-8.646L65.085,0.277L65.085,0.277z"/>
<path fill="none" stroke="#000000" stroke-width="0.8889" stroke-miterlimit="27.25" d="M298.821,21.818v-21.7h-4.236v13.288
	L285.99,0.118h-3.779v21.7h4.236V8.499l8.595,13.319H298.821z M279.377,21.818v-3.779h-9.845V0.118h-4.236v21.7H279.377z
	 M251.886-5.855h-3.382v3.809h3.382V-5.855z M258.623-5.855h-3.385v3.809h3.385V-5.855z M257.342,10.967
	c0,4.175-0.243,5.182-1.067,6.095c-0.608,0.702-1.554,1.159-2.711,1.159c-1.159,0-2.134-0.457-2.743-1.159
	c-0.823-0.913-1.036-1.92-1.036-6.095c0-4.175,0.213-5.18,1.036-6.095c0.609-0.701,1.584-1.158,2.743-1.158
	c1.157,0,2.103,0.457,2.711,1.158C257.099,5.787,257.342,6.792,257.342,10.967z M261.579,10.967c0-3.748,0.029-6.461-2.164-8.655
	c-1.524-1.524-3.384-2.377-5.852-2.377c-2.47,0-4.359,0.854-5.883,2.377c-2.194,2.194-2.134,4.907-2.134,8.655
	c0,3.75-0.061,6.46,2.134,8.657c1.523,1.521,3.413,2.376,5.883,2.376c2.468,0,4.327-0.854,5.852-2.376
	C261.608,17.428,261.579,14.717,261.579,10.967z M244.481,21.818L236.77,8.743l7.193-8.625h-5.151l-7.65,9.448V0.118h-4.235v21.7
	h4.235v-6.523l2.805-3.352l5.578,9.875H244.481z"/>
</svg>
