<?xml version="1.0" encoding="utf-8"?>
<!-- Generator: Adobe Illustrator 16.0.0, SVG Export Plug-In . SVG Version: 6.00 Build 0)  -->
<!DOCTYPE svg PUBLIC "-//W3C//DTD SVG 1.1//EN" "http://www.w3.org/Graphics/SVG/1.1/DTD/svg11.dtd">
<svg version="1.1" id="Ebene_1" xmlns="http://www.w3.org/2000/svg" xmlns:xlink="http://www.w3.org/1999/xlink" x="0px" y="0px"
	 width="200.695px" height="268.625px" viewBox="0.352 0 200.695 268.625" enable-background="new 0.352 0 200.695 268.625"
	 xml:space="preserve">
<path fill="#FFFFFF" d="M172.668,75.291h-10.694V90.64h10.694c4.98,0,8.245-3.185,8.245-7.673
	C180.914,78.476,177.649,75.291,172.668,75.291 M181.486,123.295l-11.348-23.185h-8.164v23.185h-11.348V65.169h22.778
	c11.836,0,18.859,8.083,18.859,17.797c0,8.162-4.979,13.224-10.613,15.266l12.981,25.063H181.486z"/>
<polygon fill="#FFFFFF" points="144.487,162.949 144.487,186.788 133.221,186.788 133.221,162.949 115.749,128.661 128.076,128.661 
	138.937,152.092 149.629,128.661 161.958,128.661 "/>
<polygon fill="#FFFFFF" points="29.379,99.457 29.379,123.295 18.111,123.295 18.111,99.457 0.641,65.168 12.969,65.168 
	23.828,88.6 34.522,65.168 46.85,65.168 "/>
<path fill="#FFFFFF" d="M77.276,77.904c-1.633-1.878-4.165-3.103-7.267-3.103c-3.102,0-5.714,1.225-7.347,3.103
	c-2.204,2.449-2.775,5.144-2.775,16.327c0,11.185,0.571,13.88,2.775,16.33c1.633,1.878,4.245,3.102,7.347,3.102
	c3.103,0,5.634-1.224,7.267-3.102c2.204-2.449,2.858-5.145,2.858-16.33C80.134,83.048,79.48,80.354,77.276,77.904 M85.686,117.419
	c-4.082,4.081-9.063,6.366-15.676,6.366c-6.612,0-11.674-2.286-15.755-6.366c-5.878-5.88-5.716-13.146-5.716-23.188
	c0-10.04-0.163-17.306,5.716-23.185c4.082-4.082,9.143-6.369,15.755-6.369c6.613,0,11.594,2.288,15.676,6.369
	c5.877,5.879,5.795,13.145,5.795,23.185C91.48,104.273,91.563,111.539,85.686,117.419"/>
<path fill="#FFFFFF" d="M121.648,123.785c-11.92,0-21.39-8.083-21.39-20.408V65.169h11.347v37.798
	c0,6.694,3.92,10.695,10.042,10.695c6.123,0,10.124-4.001,10.124-10.695V65.169h11.267v38.208
	C143.038,115.702,133.568,123.785,121.648,123.785"/>
<path fill="#FFFFFF" d="M22.456,187.277c-6.367,0-11.593-2.285-15.674-6.366c-5.878-5.88-5.716-13.145-5.716-23.188
	c0-10.04-0.163-17.306,5.716-23.186c4.081-4.081,9.307-6.369,15.674-6.369c10.859,0,19.35,6.205,21.39,18.371H32.334
	c-1.143-4.654-4.081-8.246-9.797-8.246c-3.102,0-5.632,1.143-7.265,3.021c-2.204,2.449-2.857,5.226-2.857,16.409
	c0,11.186,0.653,13.962,2.857,16.411c1.633,1.878,4.163,3.021,7.265,3.021c5.716,0,8.654-3.592,9.797-8.246h11.512
	C41.806,181.072,33.233,187.277,22.456,187.277"/>
<rect x="50.729" y="128.661" fill="#FFFFFF" width="11.349" height="58.127"/>
<polygon fill="#FFFFFF" points="96.201,138.783 96.201,186.788 84.853,186.788 84.853,138.783 69.667,138.783 69.667,128.661 
	111.387,128.661 111.387,138.783 "/>
<polygon points="32.657,60.028 33.796,60.028 33.796,34.449 11.752,34.449 11.752,58.889 2.629,58.889 2.629,2.771 11.751,2.771 
	11.752,26.637 33.796,26.637 33.796,2.771 42.919,2.771 42.919,58.889 32.657,58.889 32.657,60.028 33.796,60.028 32.657,60.028 
	32.657,61.167 45.196,61.167 45.196,0.492 31.519,0.492 31.519,24.36 14.03,24.36 14.03,0.492 0.352,0.492 0.352,61.167 
	14.03,61.167 14.03,36.727 31.519,36.727 31.519,61.167 32.657,61.167 "/>
<path fill="#FFFFFF" d="M78.669,1.742h-8.703L47.65,60.139h12.965l3.736-8.394l20.094-0.074l2.98,8.467h12.568L78.669,1.742z
	 M80.963,40.505H66.6l7.342-19.406L80.963,40.505z"/>
<polyline points="88.724,51.724 88.877,51.745 86.666,51.745 86.666,57.818 79.327,57.818 79.327,49.536 55.896,49.536 
	55.896,41.862 70.211,3.525 79.426,3.525 64.761,42.796 79.327,42.796 79.327,31.888 86.666,31.888 86.666,42.796 90.57,42.796 
	90.57,49.536 86.666,49.536 86.666,50.674 86.696,51.781 88.895,51.781 92.847,51.813 92.847,40.518 88.944,40.518 88.944,29.61 
	77.049,29.61 77.049,40.518 68.044,40.518 82.708,1.247 68.631,1.247 53.619,41.451 53.619,51.813 77.049,51.813 77.049,60.096 
	88.944,60.096 88.923,51.724 "/>
<path fill="none" stroke="#000000" stroke-width="2.3565" stroke-miterlimit="27.25" d="M192.132,266.962v-57.528H180.9v35.229
	l-22.785-35.229h-10.019v57.528h11.231v-35.31l22.785,35.31H192.132z M140.583,266.962v-10.02h-26.098v-47.509h-11.231v57.528
	H140.583z M67.703,193.597h-8.969v10.1h8.969V193.597z M85.56,193.597h-8.969v10.1h8.969V193.597z M82.166,238.197
	c0,11.069-0.646,13.735-2.828,16.16c-1.615,1.858-4.121,3.07-7.19,3.07c-3.071,0-5.656-1.212-7.272-3.07
	c-2.182-2.425-2.747-5.091-2.747-16.16s0.565-13.735,2.747-16.159c1.616-1.858,4.202-3.07,7.272-3.07c3.07,0,5.575,1.212,7.19,3.07
	C81.52,224.462,82.166,227.128,82.166,238.197z M93.397,238.197c0-9.938,0.081-17.129-5.737-22.946
	c-4.04-4.04-8.968-6.303-15.513-6.303c-6.545,0-11.555,2.263-15.594,6.303c-5.818,5.817-5.656,13.008-5.656,22.946
	s-0.162,17.129,5.656,22.947c4.04,4.039,9.049,6.302,15.594,6.302c6.544,0,11.473-2.263,15.513-6.302
	C93.478,255.326,93.397,248.136,93.397,238.197z M48.069,266.962l-20.442-34.663l19.068-22.865H33.041L12.76,234.48v-25.047H1.53
	v57.528h11.23v-17.291l7.434-8.888l14.786,26.179H48.069z"/>
<path d="M121.719,60.52v-1.139c-6.122-0.01-11.028-2.164-14.941-6.062c-2.63-2.64-3.949-5.49-4.66-8.905
	c-0.706-3.412-0.752-7.382-0.749-12.02c0-0.513,0.001-1.034,0.001-1.564c0-0.531-0.001-1.052,0-1.565
	c-0.002-4.636,0.042-8.605,0.748-12.017c0.711-3.416,2.03-6.266,4.66-8.904c3.913-3.901,8.819-6.056,14.941-6.065
	c5.242,0.002,9.822,1.49,13.344,4.386c3.518,2.898,6.029,7.229,7.022,13.119l1.124-0.188v-1.14h-11.565v1.14l1.106-0.272
	c-0.611-2.487-1.718-4.773-3.529-6.458c-1.806-1.69-4.313-2.702-7.419-2.694c-3.393-0.005-6.285,1.266-8.159,3.425l0.86,0.748
	l-0.848-0.762c-0.605,0.673-1.139,1.413-1.562,2.307c-0.64,1.345-1.029,2.987-1.268,5.32c-0.239,2.337-0.331,5.39-0.331,9.621
	c0.003,5.642,0.16,9.188,0.624,11.739c0.233,1.275,0.549,2.31,0.976,3.204c0.424,0.893,0.958,1.632,1.562,2.306l0.848-0.762
	l-0.86,0.748c1.875,2.161,4.766,3.43,8.159,3.427c3.106,0.009,5.613-1.005,7.419-2.694c1.812-1.686,2.918-3.971,3.529-6.458
	l-1.106-0.271v1.139h11.565v-1.139l-1.124-0.188c-0.993,5.886-3.522,10.217-7.052,13.117c-3.533,2.896-8.115,4.383-13.314,4.386
	V60.52v1.139c5.628,0.002,10.767-1.627,14.759-4.903c3.995-3.271,6.796-8.167,7.854-14.502l0.223-1.326h-13.804l-0.212,0.867
	c-0.539,2.189-1.48,4.045-2.868,5.333c-1.392,1.284-3.233,2.076-5.869,2.084c-2.841-0.003-5.032-1.029-6.441-2.642l-0.011-0.013
	l-0.001-0.002c-0.501-0.557-0.879-1.089-1.201-1.762c-0.479-1.004-0.834-2.375-1.059-4.572c-0.225-2.196-0.318-5.194-0.318-9.391
	c-0.002-5.594,0.169-9.062,0.586-11.328c0.208-1.135,0.47-1.961,0.79-2.633c0.322-0.673,0.7-1.204,1.201-1.762l0.012-0.015
	c1.409-1.613,3.6-2.637,6.441-2.643c2.635,0.009,4.477,0.801,5.869,2.084c1.388,1.287,2.33,3.144,2.868,5.333l0.212,0.868h13.804
	l-0.223-1.327c-1.059-6.332-3.836-11.229-7.822-14.503c-3.983-3.277-9.123-4.906-14.791-4.903c-6.669-0.01-12.265,2.43-16.551,6.731
	c-2.967,2.957-4.519,6.329-5.28,10.056c-0.766,3.732-0.794,7.829-0.796,12.476c-0.001,0.515,0,1.037,0,1.565
	s-0.001,1.05-0.001,1.564c0.003,4.649,0.031,8.746,0.797,12.479c0.762,3.728,2.313,7.1,5.28,10.057
	c4.287,4.302,9.882,6.74,16.551,6.73V60.52z"/>
<polygon points="185.768,60.028 186.758,59.467 170.939,31.461 162.073,42.063 162.073,58.889 152.951,58.889 152.951,2.771 
	162.073,2.771 162.073,30.274 184.342,2.771 195.227,2.771 176.914,24.729 197.06,58.889 185.768,58.889 185.768,60.028 
	186.758,59.467 185.768,60.028 185.768,61.167 201.047,61.167 179.692,24.955 200.092,0.492 183.255,0.492 164.351,23.841 
	164.351,0.492 150.673,0.492 150.673,61.167 164.351,61.167 164.351,42.891 170.576,35.447 185.102,61.167 185.768,61.167 "/>
</svg>
