<svg xmlns="http://www.w3.org/2000/svg" viewBox="0 0 841.889 595.281"><path fill="#1A171B" d="M445.722 329.878c-.8 0-1.332.266-1.599.799-.8 1.065-.8 2.132-.267 3.464 1.332 2.931 5.861 5.595 9.059 5.595 1.065 0 1.864-.267 2.397-1.065.267-.533 0-1.333-.267-1.599-1.331-3.198-6.392-7.194-9.323-7.194m288.001.265c-1.066 0-1.865.267-2.132.8-.799.799-.267 2.131.267 2.931 1.599 3.197 6.395 6.927 9.324 6.927.8 0 1.599-.267 1.865-.799.8-1.066 0-5.062-2.664-7.193-2.397-1.866-4.796-2.666-6.66-2.666M299.99 366.11l.267-.799c1.065-4.796 3.464-8.525 6.927-10.391.533-.267 1.066-.532 1.865-.532 1.332 0 2.397.532 2.664 1.598.267.533.267 1.865-1.599 3.73-2.131 1.865-5.062 3.996-9.324 6.128l-.8.266zm479.824 3.997v-.267c-.533-4.529 2.931-7.46 6.127-8.525.533-.267 1.066-.267 1.599-.267 1.332 0 2.664.533 3.197 1.599s.267 2.131-.533 3.197c-2.131 2.664-6.927 3.729-9.857 4.263h-.533zm-528.579 5.328c-.799 0-1.065-.267-1.332-.533-.533-.532-.533-1.332-.267-2.397 1.066-3.197 7.993-13.588 11.189-13.588.8 0 1.865.533 2.398 1.332.799 1.333 1.065 2.931.267 4.529-1.865 4.796-7.726 10.657-12.255 10.657m351.142 4.53c-1.865 0-3.729-.8-4.796-2.132-1.332-1.332-1.599-3.463-1.332-5.595.8-3.463 5.062-7.992 8.792-7.992 1.599 0 3.197.532 4.263 1.864 1.599 1.599 2.132 3.73 1.865 5.329 0 4.53-4.263 8.526-8.792 8.526m-159.586-26.376c-1.865 0-3.197 1.332-3.996 4.529-2.398 8.792-1.865 16.518 1.065 21.047 1.599 2.398 3.729 3.997 6.128 4.529 1.598.267 2.664 0 3.196-.532.267-.267.267-.8 0-1.066-2.131-4.795-2.931-13.32.267-20.514 1.599-3.464.8-5.329-2.664-6.928-1.865-.799-3.197-1.065-3.996-1.065m-27.175 16.784v.8c.267 8.525 6.127 12.788 8.792 13.321 1.598.532 2.931.266 3.463-.533.267-.267.267-.799-.267-1.332-3.729-6.395-1.599-18.649-1.332-19.981.8-3.996-1.332-5.328-3.463-6.927-1.066-.533-2.132-1.066-3.197-1.066-.799 0-1.599.267-2.131 1.066-3.197 7.459-13.321 18.116-18.117 18.116-1.599 0-2.664-.533-3.197-1.599-1.598-2.664-.266-7.992 1.599-11.988 1.332-2.665.533-4.264-2.397-5.861-1.332-.8-2.931-1.332-3.996-1.332-1.599 0-2.398.532-3.197 1.864-.799 1.865-2.664 6.927-3.729 13.055-.533 2.664.532 5.861 2.664 8.259 2.664 2.931 6.394 5.062 9.591 5.062 4.263 0 10.124-3.73 17.851-11.189l1.063.265zm-220.863-20.247c-2.131 0-3.196 1.332-3.996 3.729-1.865 4.796-4.529 14.92-5.595 21.847-.533 4.529.533 6.127 3.729 7.992 3.73 2.398 7.46 2.398 9.325.267.799-1.065 1.865-2.132 2.664-3.197 4.263-4.795 8.792-10.124 13.055-13.055 1.065-.799 2.132-.267 2.664 1.066 4.796 13.054 12.788 14.919 17.051 14.919h1.865c1.599-.267 2.397-1.332 2.397-2.131 0-.533-.532-1.066-1.332-1.066h-.266c-6.395 0-7.727-6.394-9.592-15.452l-.267-.799c-.532-2.931-2.664-5.329-6.127-6.661-1.066-.267-1.865-.532-2.664-.532-1.865 0-2.931.799-4.264 1.599-3.196 2.397-7.992 7.193-11.722 10.923-3.464 3.464-5.062 5.328-5.861 5.328h-.533v-.532c.533-3.464 2.664-11.723 5.595-18.649.267-.8.533-1.865 0-2.665-.532-1.065-1.599-2.131-3.463-2.931-.798.265-1.863 0-2.663 0m436.398 8.525c-.8 0-1.865.266-2.132.799-.266.533-.266 1.065 0 1.865 1.332 4.263-.266 11.723-1.332 16.518-.267.8-.267 1.332-.267 1.865-.799 3.729 1.066 4.796 3.464 6.128 1.065.532 2.132 1.065 3.197 1.065s2.397-.267 2.931-2.132c2.664-8.525 10.124-22.912 30.904-23.711.533 0 1.066-.267 1.066-1.065.266-.8-.267-1.865-1.599-2.398-1.332-.532-3.197-.799-5.329-.799-6.66 0-15.186 2.931-21.58 7.193l-.266.267-.267-.533c-.267-.533-3.464-3.729-6.395-4.529-1.063-.533-1.597-.533-2.395-.533m-456.113-37.565c-2.397 0-3.463 1.599-3.729 2.931a514.148 514.148 0 0 0-2.132 10.124c-2.397 10.923-5.861 25.843-6.927 36.499-1.065 13.588 1.865 16.519 5.328 17.584.8.267 1.599.267 1.865-.267.267-.267.533-1.065.533-1.864 0-11.723 7.726-43.16 11.722-56.215 1.599-4.796.267-6.661-2.664-7.993-1.598-.534-2.93-.799-3.996-.799m543.232 52.217v1.066c-.266 6.66 1.599 11.189 5.329 13.854a5.112 5.112 0 0 0 3.196 1.065c.533 0 1.066-.266 1.333-.532.266-.267.266-.8 0-1.066-1.599-5.595-1.066-13.054 1.599-19.981 1.332-3.729 1.864-5.861-1.865-7.992-2.931-1.599-5.062-1.599-6.128 0 0 .267-.267.267-.267.532l-.267.267c-6.66 9.592-16.784 21.048-23.711 21.048-1.065 0-2.132-.267-2.664-1.066-1.599-1.598-2.132-4.528-1.599-9.058.799-11.19 5.861-27.708 10.923-36.5 1.332-2.131 1.599-3.464 1.065-4.529-.532-.799-1.598-1.065-3.729-1.332h-.267c-4.795 0-6.66 2.398-7.726 5.062-4.263 9.591-9.592 23.978-9.592 38.897 0 3.996 1.332 7.459 3.997 10.124 3.729 3.729 8.525 5.062 10.923 5.062 7.193 0 14.92-8.792 18.916-14.12l.534-.801zm-156.922-3.196v.532c-1.598 9.059-2.131 18.383-1.864 24.511.267 7.193 1.599 11.189 4.263 12.788.799.533 1.599.533 2.397.533.533 0 1.065 0 1.599-.533.267-.266.533-1.065.267-1.599-1.065-8.791.267-23.178 3.197-37.831v-.267h.266c5.062-.8 10.124-1.332 15.187-1.865h.799l-.532.533c-1.066 1.332-1.599 3.197-1.599 5.595 0 5.595 7.46 13.854 18.916 13.854 6.927 0 15.186-5.861 15.186-13.32 0-9.325-7.992-15.719-15.186-15.719-2.931 0-6.128 1.332-8.525 3.729h-5.862c-6.128 0-11.723.267-16.785.533h-.532v-.533c2.664-10.391 5.595-19.183 8.792-25.044 1.332-2.397 2.131-3.463 3.996-3.729h.267c1.599 0 2.931 1.332 3.996 3.729.267.533.532 1.066 1.332 1.066.533 0 1.332-.533 1.865-1.333.799-1.065 1.065-2.93.532-4.528-.532-2.398-2.397-4.529-4.795-5.861-2.132-1.065-4.264-1.865-6.128-1.865-2.664 0-4.796 1.332-6.395 3.729-7.193 9.858-11.456 24.511-13.587 34.901v.267h-.267c-7.727 1.065-14.12 2.397-18.649 4.529-1.332.532-1.865 1.065-1.865 1.865 0 .799.8 2.131 2.664 3.196 2.931 1.865 5.062 2.132 7.46 1.066 1.599-.8 4.796-1.865 8.792-2.931h.798zm183.564 2.664v.532c-1.599 10.657-2.397 20.781-1.865 27.176.533 8.259 3.197 10.656 5.328 11.988 1.599.8 3.197 1.065 3.73.533.267-.267.267-.8.267-1.599-1.066-10.124-.267-24.511 2.397-39.431v-.267h.267c4.529-1.065 9.591-2.131 13.854-3.463l.533-.267v.533c-.533 3.463 1.065 7.193 3.996 10.656 5.595 6.395 15.452 10.124 26.908 10.124 6.661 0 12.522-2.664 14.387-4.529.8-.799 1.066-1.598 1.066-2.131-.267-.267-.8-.533-1.599-.267-4.263 1.065-8.26 1.865-12.256 1.865-9.058 0-16.252-3.197-19.715-8.525l-.267-.533h.533c6.927-.799 15.452-4.796 16.784-7.992 1.065-2.665.267-5.062-.799-6.661-2.132-3.196-6.661-5.595-10.391-5.595-5.062 0-11.189 2.664-14.92 6.395a217.543 217.543 0 0 1-16.251 3.196h-.533v-.532a152.77 152.77 0 0 1 7.992-26.109c1.066-2.132 1.865-3.729 3.73-3.729 1.599 0 2.931 1.065 3.729 3.196.267.8.8 1.066 1.332 1.066.533 0 1.065-.533 1.599-1.599 1.065-2.132.267-6.395-3.463-9.059-2.132-1.599-4.529-2.397-6.395-2.397-2.397 0-4.529 1.332-6.128 3.729-5.062 7.727-9.591 20.515-12.521 35.7v.267h-.533c-2.131 0-3.996 0-5.595-.267s-2.664 0-2.931.8c-.533.799 0 2.664 1.599 4.795 1.332 2.132 3.197 2.398 5.595 2.398h.536zm-497.407 58.613c-1.332 0-2.398-.533-3.197-1.599-1.332-1.599-2.664-6.128 1.332-17.051 2.664-6.927 7.193-13.321 14.387-19.448l.533-.533v.799c-.533 22.113-5.862 37.832-13.055 37.832m254.165-54.35l-.267.532c-1.865 3.997-3.729 8.526-5.595 13.055-5.328 13.055-11.456 27.975-22.912 42.628-.533.799-.8 1.332-.533 1.864.267.533.8.8 1.599.8.8 0 1.599-.267 2.664-.8 7.46-4.795 18.384-21.047 29.573-44.492 8.525-17.583 13.854-23.444 18.383-28.24l1.599-1.599c.799-.799 1.065-1.599.799-2.131-.267-1.066-1.599-2.132-3.996-2.931-3.197-1.066-5.595-.8-7.46 1.332l-.267.267c-5.86 6.394-13.32 14.387-16.784 14.387-.799 0-1.599-.267-2.131-.8-1.599-1.865-1.332-5.595-1.066-8.525v-1.332c0-2.397-1.332-3.729-4.795-4.263-2.664-.533-11.19-1.065-17.851-1.332h-.533v-.267c1.865-9.857 5.062-19.715 7.727-24.244 1.065-1.599 1.865-3.197 1.332-3.996-.267-.8-1.599-1.332-3.729-1.865-.8-.267-1.599-.267-2.398-.267-3.463 0-4.528 2.664-5.328 4.263-3.197 7.993-5.861 17.317-7.193 25.843v.267h-4.53c-1.065 0-1.864.267-2.131.799-.267.533-.267 1.066.267 2.132.532 1.332 2.131 3.996 5.328 5.062h.267v.267c-.267 1.865-.267 3.997-.267 5.861 0 9.592 2.931 15.187 8.259 16.519h.8c.799 0 1.598-.267 2.131-.8.267-.267 0-.799-.267-1.332-2.664-4.795-2.397-14.12-1.599-20.78v-.267h.267c3.73-.533 8.259-1.065 11.456-1.332.8 0 1.332.267 1.599.532.533.533.533 1.066.533 1.865 0 1.332 0 6.395 3.463 10.124 2.665 2.931 6.928 4.263 12.522 4.263l1.064-1.067zm-241.377-.533v.8c.267 2.664.267 5.328.267 7.992v.267h-.267c-11.723 7.992-19.183 16.518-22.646 26.109-2.665 7.46-2.132 14.653 1.065 19.182 2.131 3.197 5.595 4.796 9.591 4.796 6.927 0 12.521-5.328 16.519-15.985 3.996-10.923 5.328-24.777 5.595-34.635v-.267h.267c5.062-3.196 11.189-6.394 18.116-9.324h.267l.267.267c3.196 4.529 10.124 9.058 17.583 9.058 9.325 0 18.117-7.193 21.58-10.123l.533-.533v.533c.533 2.664 2.132 5.062 4.796 6.66 4.529 2.664 7.992 2.931 10.656 0 2.132-2.132 3.73-3.996 5.062-5.595 2.397-2.664 4.529-5.062 7.726-7.46 1.332-1.065 2.665-.533 3.73 1.065 5.595 9.592 11.988 14.653 18.383 15.187 1.865.266 3.464-.533 3.729-1.332.267-.533-.266-1.333-1.332-1.865-4.263-2.664-7.726-7.727-10.923-15.985-1.065-2.664-2.664-4.529-7.46-6.395-1.065-.266-1.865-.532-2.664-.532-1.599 0-2.931.799-3.996 1.599l-.267.266c-3.464 2.398-7.46 6.661-10.391 9.592-1.332 1.332-2.397 2.664-3.197 3.197-1.332 1.065-2.397 1.332-2.931.799-.532-.533-.532-1.332-.532-1.865.267-4.528 1.599-9.324 4.263-15.186.532-1.065.532-1.865.267-2.931-.533-1.065-1.599-2.132-3.73-2.664-1.332-.533-2.131-.533-3.197-.533-2.397 0-3.196 1.332-4.263 3.73-1.598 3.996-2.397 7.193-3.196 11.988-8.26 7.993-15.453 12.256-21.58 12.256-4.796 0-7.993-2.664-8.525-7.727v-.267h.266c6.661-2.931 13.588-6.394 16.519-10.39 2.397-2.931 1.865-5.329 1.065-6.928-1.332-3.196-5.328-5.595-8.792-5.595-4.529 0-20.78 8.259-21.047 22.646v.267h-.267c-3.996 1.599-9.857 4.263-15.719 7.46l-.533.267v-.533c1.066-8.259 3.464-14.919 4.529-17.317.8-1.599 1.065-2.664.533-3.463-.267-.8-1.065-1.599-2.931-2.398-2.132-1.065-4.529-.799-6.128.533l-.267.267-.267-.267s-2.131-3.197-6.394-3.197c-8.525 0-21.313 14.92-22.38 20.781-.266 1.599.267 2.931 1.599 4.529 2.398 2.664 7.193 4.795 10.657 4.529 3.729-.267 7.46-2.931 9.324-5.062l1.068-.268zM24.244 271.798V251.55c11.456 3.729 21.58 5.328 30.639 5.328 12.255 0 18.383-3.197 18.383-9.591 0-2.398-.8-4.529-2.664-6.128-1.865-1.865-6.395-4.263-13.854-7.193-13.587-5.595-22.112-10.124-26.375-14.12-5.329-5.062-7.993-11.723-7.993-19.449 0-10.124 3.73-17.85 11.456-23.179 7.727-5.328 17.584-7.992 29.84-7.992 6.66 0 16.518 1.332 29.306 3.729v19.449c-9.591-3.73-18.383-5.595-26.376-5.595-11.456 0-17.316 3.197-17.316 9.591 0 2.397 1.065 4.263 3.463 5.861 1.865 1.332 7.193 3.729 15.985 7.727 12.521 5.595 20.781 10.39 25.044 14.387 4.795 4.795 7.459 11.189 7.459 18.916 0 11.189-4.795 19.448-14.387 25.31-7.726 4.796-17.85 7.193-30.372 7.193-11.191-.267-21.581-1.332-32.238-3.996M116.693 171.357h28.773v102.305h-28.773zM171.575 273.662V171.357h73.266v18.383h-45.825v23.179h39.964v16.784h-39.964v24.244h46.89v19.715zM264.556 273.662V171.357h37.032l25.843 65.273 26.376-65.273h35.167v102.305h-27.175v-72.466l-29.839 73.266h-17.85l-29.306-73.266v72.466zM415.083 273.662V171.357h73.266v18.383h-45.824v23.179h39.963v16.784h-39.963v24.244h46.889v19.715zM508.33 273.662V171.357h33.036l35.168 68.47v-68.47h20.248v102.305h-32.237l-35.967-69.535v69.535zM617.031 271.798V251.55c11.456 3.729 21.58 5.328 30.638 5.328 12.256 0 18.384-3.197 18.384-9.591 0-2.398-.8-4.529-2.665-6.128-1.864-1.865-6.394-4.263-14.12-7.193-13.32-5.595-22.112-10.124-26.375-14.12-5.329-5.062-7.993-11.723-7.993-19.449 0-10.124 3.73-17.85 11.456-22.912 7.727-5.328 17.584-7.992 29.839-7.992 6.928 0 15.72 1.065 26.643 3.197l2.397.532v19.449c-9.591-3.73-18.383-5.595-26.642-5.595-11.456 0-17.051 3.196-17.051 9.591 0 2.397 1.065 4.263 3.463 5.861 1.865 1.065 7.193 3.729 15.985 7.726 12.256 5.596 20.781 10.391 24.777 14.387 4.796 4.796 7.46 11.19 7.46 18.916 0 11.19-4.796 19.449-14.387 25.311-7.727 4.795-18.117 7.193-30.372 7.193-10.391-.534-20.781-1.599-31.437-4.263"/></svg>