<?xml version="1.0" encoding="utf-8"?>
<!-- Generator: Adobe Illustrator 16.0.0, SVG Export Plug-In . SVG Version: 6.00 Build 0)  -->
<!DOCTYPE svg PUBLIC "-//W3C//DTD SVG 1.1//EN" "http://www.w3.org/Graphics/SVG/1.1/DTD/svg11.dtd">
<svg version="1.1" id="Ebene_1" xmlns="http://www.w3.org/2000/svg" xmlns:xlink="http://www.w3.org/1999/xlink" x="0px" y="0px"
	 width="841.889px" height="595.281px" viewBox="0 0 841.889 595.281" enable-background="new 0 0 841.889 595.281"
	 xml:space="preserve">
<g>
	<path fill="#19181B" d="M668.372,287.802l-0.488,0.465v33.049l0.488,0.487h7.253l0.479-0.487v-34.001l-0.479-0.465L668.372,287.802
		z M534.972,287.802l-0.481,0.465v33.049l0.481,0.487h7.26l0.474-0.487v-34.001l-0.474-0.465L534.972,287.802z M86.885,287.802
		l-0.481,0.465v33.049l0.481,0.487h7.256l0.48-0.487v-34.001l-0.48-0.465L86.885,287.802z M68.367,322.061l12.953-34.743
		l-0.545-0.401l-8.301,0.823l-0.474,0.534l-5.702,19.471l-1.297,5.555l-1.575-5.555l-3.352-9.726v-10.701l-0.48-0.466l-6.986,0.953
		l-0.48,0.476v9.342l-3.503,10.091l-1.503,5.58l-1.366-5.58l-6.034-20.396l-0.55-0.401l-8.084,0.823l-0.412,0.534l12.344,32.427
		l0.479,0.547l6.228,1.221l0.561-0.407l4.106-11.515l1.499-4.869l1.379,4.869l3.758,10.015l0.482,0.543l6.307,1.364L68.367,322.061z
		 M94.342,280.595l0.478-0.412v-7.394l-0.478-0.419h-7.589l-0.493,0.419v7.397l0.493,0.412h7.589V280.595z M110.872,297.249
		c0-2.325,2.329-3.703,5.559-3.703c2.876,0,5.963,2.195,5.963,2.195l0.607-0.066l3.977-5.079l-0.065-0.674
		c0,0-4.377-3.412-10.618-3.412c-6.799,0-13.774,3.205-13.774,10.747c0,6.987,6.159,9.05,11.234,10.558
		c3.013,0.896,5.833,1.797,5.833,3.849c0,3.157-2.673,3.9-5.569,3.9c-3.705,0-7.335-2.604-7.335-2.604l-0.67,0.068l-3.903,5.063
		l0.133,0.692c3.146,2.339,7.538,3.825,11.988,3.825c7.271,0,13.715-2.529,13.715-10.942c0-7.064-5.955-8.851-11.031-10.293
		C113.75,300.48,110.872,299.586,110.872,297.249 M142.062,297.249c0-2.325,2.316-3.703,5.545-3.703
		c2.886,0,5.971,2.195,5.971,2.195l0.617-0.066l3.974-5.079l-0.068-0.674c0,0-4.379-3.412-10.628-3.412
		c-6.787,0-13.772,3.205-13.772,10.747c0,6.987,6.155,9.05,11.238,10.558c3.015,0.896,5.83,1.797,5.83,3.849
		c0,3.157-2.68,3.9-5.561,3.9c-3.698,0-7.335-2.604-7.335-2.604l-0.683,0.068l-3.909,5.063l0.151,0.692
		c3.141,2.339,7.535,3.825,11.984,3.825c7.279,0,13.717-2.529,13.717-10.942c0-7.064-5.972-8.851-11.045-10.293
		C144.944,300.48,142.062,299.586,142.062,297.249 M173.587,299.933c0-4.259,2.196-6.306,5.973-6.306
		c3.56,0,5.074,1.707,5.074,3.423c0,3.504-2.681,4.392-6.188,4.392c-1.774,0-3.901-0.345-4.862-0.881v-0.628H173.587z
		 M193.88,314.462l-0.347-0.606l-6.372-2.062l-0.605,0.344c-1.309,2.125-3.161,3.427-6.654,3.427c-3.847,0-6.317-2.07-6.317-7.001
		v-1.717l-0.481-3.281c1.851,3.148,5.275,4.447,8.573,4.447c5.901,0,11.371-3.827,11.371-10.695c0-5.14-3.489-10.815-13.29-10.815
		c-8.57,0-14.389,4.716-14.389,12.678v10.965c0,8.223,5.475,12.458,14.809,12.458C186.48,322.609,191.822,319.674,193.88,314.462
		 M229.309,321.811l0.487-0.492v-22.757c0-8.03-5.34-12.058-10.963-12.058c-4.121,0-8.168,2.396-9.598,6.219l-2.196-5.481
		l-0.549-0.396l-6.65,0.887l-0.407,0.534l1.981,6.997v26.052l0.481,0.496h7.256l0.492-0.496v-26.948
		c1.64-0.399,4.797-1.028,5.961-1.028c3.293,0,5.974,1.93,5.974,6.653v21.327l0.48,0.492H229.309z M245.772,297.249
		c0-2.325,2.329-3.703,5.553-3.703c2.881,0,5.97,2.195,5.97,2.195l0.61-0.066l3.97-5.079l-0.068-0.674c0,0-4.371-3.412-10.624-3.412
		c-6.787,0-13.776,3.205-13.776,10.747c0,6.987,6.167,9.05,11.238,10.558c3.022,0.896,5.83,1.797,5.83,3.849
		c0,3.157-2.664,3.9-5.561,3.9c-3.694,0-7.32-2.604-7.32-2.604l-0.687,0.068l-3.905,5.063l0.133,0.692
		c3.153,2.339,7.532,3.825,11.992,3.825c7.271,0,13.706-2.529,13.706-10.942c0-7.064-5.957-8.851-11.029-10.293
		C248.644,300.48,245.772,299.586,245.772,297.249 M297.517,314.333l-0.348-0.622l-6.369-2.052l-0.618,0.345
		c-1.308,2.191-3.013,3.56-6.719,3.56c-3.771,0-6.169-2.264-6.169-6.514v-9.061c0-4.248,2.398-6.448,6.169-6.448
		c2.81,0,5.141,1.376,6.379,3.708l0.673,0.274l6.321-2.126l0.267-0.621c-2.396-5.678-7.47-8.275-13.299-8.275
		c-9.309,0-14.733,5.07-14.733,12.465v11.187c0,7.329,5.421,12.449,14.733,12.449C290.388,322.609,295.321,319.806,297.517,314.333
		 M332.621,321.811l0.465-0.492v-22.757c0-8.03-5.342-12.058-10.941-12.058c-4.126,0-8.171,2.396-9.612,6.219l0.478-3.97v-16.986
		l-0.478-0.488l-7.256,0.965l-0.484,0.478v48.593l0.484,0.487h7.256l0.478-0.487v-26.948c1.645-0.399,4.742-1.028,5.889-1.028
		c3.312,0,5.988,1.93,5.988,6.653v21.327l0.477,0.492H332.621L332.621,321.811z M359.489,314.462c0,0-3.017,1.445-6.447,1.445
		c-2.883,0-4.591-1.505-4.591-3.634c0-6.304,9.256-1.102,11.038-8.709V314.462z M369.218,321.381l0.414-0.543l-1.996-6.997v-16.252
		c0-8.081-6.1-11.084-13.841-11.084c-3.974,0-8.214,1.235-11.227,3.684l-0.151,0.688l3.571,5.012l0.676,0.138
		c1.989-1.586,4.455-2.474,7.064-2.474c3.076,0,5.7,0.969,5.7,5.017v1.716c-1.323,1.918-9.814,0.129-14.616,3.078
		c-3.01,1.852-4.857,4.859-4.857,8.913c0,6.3,4.857,10.333,10.34,10.333c7.353,0,9.541-6.352,9.541-6.352l2.195,5.612l0.551,0.406
		L369.218,321.381z M396.918,277.106l3.139-5.891l-0.263-0.552c0,0-2.6-1.167-6.925-1.167c-6.931,0-13.77,4.179-13.77,12.621v5.201
		h-4.321l-0.474,0.487v6.103l0.474,0.465h4.321v39.355l0.195,0.606l5.209,2.95l0.48-0.474l2.329-10.203v-32.235h7.737l0.48-0.465
		l1.501-6.112l-0.473-0.478h-9.246v-5.478c0-3.025,2.606-5.08,5.553-5.08c1.985,0,3.283,0.477,3.283,0.477L396.918,277.106z
		 M410.274,308.843v-14.476h9.401l0.478-0.468l1.5-6.107l-0.473-0.478h-10.906v-7.94l-0.473-0.49l-5.959,0.898l-0.496,0.477
		l-0.812,7.052h-4.178l-0.48,0.488v6.101l0.48,0.468h3.697v14.745c0,8.905,5.271,13.481,12.059,13.481
		c3.423,0,6.854-0.952,9.467-2.729l0.13-0.687l-2.743-5.282l-0.684-0.123c0,0-2.677,1.642-5.356,1.642
		C411.996,315.43,410.274,312.694,410.274,308.843 M542.439,280.595l0.481-0.412v-7.394l-0.481-0.419h-7.6l-0.481,0.419v7.397
		l0.481,0.412h7.6V280.595z M600.281,321.811l0.491-0.492v-22.757c0-8.03-4.998-12.058-10.623-12.058
		c-4.104,0-8.097,2.598-9.597,6.353c-1.717-4.236-5.539-6.353-9.59-6.353c-4.118,0-7.479,2.396-8.917,6.219l-2.198-5.481
		l-0.551-0.396l-6.641,0.887l-0.414,0.534l1.997,6.997v26.052l0.469,0.496h7.272l0.481-0.496v-26.948
		c1.646-0.399,4.103-1.028,5.28-1.028c3.294,0,5.623,1.93,5.623,6.653v21.327l0.473,0.492h7.269l0.473-0.492v-22.757
		c0-1.446-0.207-2.817-0.473-3.982c1.648-0.414,4.657-1.25,5.819-1.25c3.298,0,5.633,1.934,5.633,6.659v21.326l0.474,0.487h7.249
		V321.811z M648.209,314.742c-1.641,0.411-4.258,1.032-5.411,1.032c-3.286,0-6.11-1.923-6.11-6.659v-9.126
		c0-4.248,2.458-6.443,5.834-6.443c3.707,0,5.692,1.906,5.692,5.696L648.209,314.742L648.209,314.742z M658.007,321.381l0.414-0.543
		l-1.997-6.997v-42.073l-0.479-0.488l-7.254,0.965l-0.485,0.478v12.212l0.412,3.562c-2.049-1.374-4.386-1.983-6.862-1.983
		c-7.405,0-13.286,4.579-13.286,12.453v11.592c0,8.019,5.479,12.059,11.104,12.059c4.111,0,7.602-2.389,9.044-6.217l2.195,5.471
		l0.554,0.406L658.007,321.381z M675.824,280.595l0.489-0.412v-7.394l-0.489-0.419h-7.6l-0.47,0.419v7.397l0.47,0.412h7.6V280.595z
		 M704.486,314.462c0,0-3.014,1.445-6.451,1.445c-2.884,0-4.599-1.505-4.599-3.634c0-6.304,9.271-1.102,11.054-8.709
		L704.486,314.462L704.486,314.462z M714.219,321.381l0.41-0.543l-1.985-6.997v-16.252c0-8.081-6.092-11.084-13.847-11.084
		c-3.973,0-8.23,1.235-11.24,3.684l-0.133,0.688l3.559,5.012l0.68,0.138c1.995-1.586,4.461-2.474,7.061-2.474
		c3.083,0,5.699,0.969,5.699,5.017v1.716c-1.301,1.918-9.818,0.129-14.605,3.078c-3.014,1.852-4.856,4.859-4.856,8.913
		c0,6.3,4.856,10.333,10.346,10.333c7.336,0,9.523-6.352,9.523-6.352l2.206,5.612l0.545,0.406L714.219,321.381z M734.98,321.453
		l1.028-6.229l-0.481-0.481h-0.479c-1.583,0-3.15-0.606-3.15-2.454v-40.52l-0.481-0.488l-7.251,0.965l-0.481,0.478v40.719
		c0,7.874,6.913,8.568,9.522,8.568c0.539,0,1.219-0.069,1.31-0.069L734.98,321.453z M764.331,309.056
		c0,4.243-2.395,6.507-6.313,6.507c-4.043,0-6.317-2.264-6.317-6.507v-9.064c0-4.247,2.274-6.446,6.317-6.446
		c3.919,0,6.313,2.195,6.313,6.446V309.056z M772.553,310.152v-11.181c0-8.1-6.229-12.467-14.535-12.467
		c-8.302,0-14.521,4.367-14.521,12.467v11.181c0,8.072,6.22,12.457,14.521,12.457C766.321,322.609,772.553,318.224,772.553,310.152
		 M801.485,299.992c0,4.474-2.337,6.942-6.803,6.942c-4.029,0-6.514-2.551-6.514-6.942c0-4.247,2.684-6.498,6.514-6.498
		C799.148,293.494,801.485,295.745,801.485,299.992 M811.213,291.153l-1.031-5.608l-0.542-0.415l-8.762,1.72h-6.53
		c-8.841,0-14.252,4.722-14.252,13.143c0,5.848,2.46,10.414,8.017,12.407c-2.398,1.086-3.771,3.996-3.771,5.756
		c0,3.715,3.427,6.312,10.006,6.312h4.244c2.146,0,3.232,1.166,3.232,2.6c0,1.73-2.13,3.512-6.174,3.512
		c-7.057,0-8.979-3.845-8.979-3.845l-0.606-0.347l-6.166,2.473l-0.28,0.621c2.527,6.021,8.976,8.151,16.18,8.151
		c7.125,0,14.243-3.298,14.243-10.418c0-5.7-3.91-9.804-11.44-9.804h-4.796c-2.41,0-3.504-0.961-3.504-2.883
		c0-0.415,0.071-0.969,0.206-1.509c1.383,0.28,2.881,0.414,4.525,0.414c8.439,0,14.544-4.806,14.544-12.739
		c0-3.016-1.108-5.914-3.299-7.837l4.525-1.146L811.213,291.153z"/>
	<path fill="#19181B" d="M486.145,271.378c0-7.553-6.037-13.73-13.622-13.73c-7.294,0-13.488,6.177-13.488,13.73
		c0,7.245,6.198,13.408,13.488,13.408C480.108,284.79,486.145,278.623,486.145,271.378"/>
	<path fill="#19181B" d="M486.145,322.512c0-7.56-6.037-13.729-13.622-13.729c-7.294,0-13.488,6.17-13.488,13.729
		c0,7.231,6.198,13.412,13.488,13.412C480.108,335.925,486.145,329.744,486.145,322.512"/>
</g>
</svg>
