<?xml version="1.0" encoding="utf-8"?>
<!-- Generator: Adobe Illustrator 16.0.0, SVG Export Plug-In . SVG Version: 6.00 Build 0)  -->
<!DOCTYPE svg PUBLIC "-//W3C//DTD SVG 1.1//EN" "http://www.w3.org/Graphics/SVG/1.1/DTD/svg11.dtd">
<svg version="1.1" id="Ebene_1" xmlns="http://www.w3.org/2000/svg" xmlns:xlink="http://www.w3.org/1999/xlink" x="0px" y="0px"
	 viewBox="0 0 841.889 595.281" enable-background="new 0 0 841.889 595.281"
	 xml:space="preserve">
<rect x="9.251" y="205.125" fill="#FFFFFF" width="185.031" height="185.031"/>
<polygon fill="#1A171B" points="194.282,205.125 194.282,390.156 703.116,390.156 726.245,250.827 749.374,390.156 772.503,250.827 
	795.632,390.156 841.889,390.156 841.889,205.125 "/>
<path fill="#FFFFFF" d="M257.377,315.403c0-7.586-3.33-12.767-10.916-16.838l-9.252-4.996c-6.105-3.33-8.142-5.551-8.142-9.066
	c0-5.735,3.701-8.511,11.473-8.511c4.625,0,9.437,0.739,14.617,2.22v-7.031c-7.586-2.22-11.657-3.146-16.098-3.146
	c-13.138,0-20.908,6.477-20.908,17.578c0,7.217,3.146,12.027,10.731,16.098l11.287,6.291c4.256,2.406,6.105,4.996,6.105,8.697
	c0,6.476-4.256,9.437-12.952,9.437c-4.44,0-8.881-0.556-15.728-2.221v7.031c8.326,2.22,13.878,3.146,17.948,3.146
	C249.051,334.276,257.377,327.245,257.377,315.403"/>
<path fill="#FFFFFF" d="M292.533,331.871v-6.291c-2.405,0.37-4.996,0.74-7.031,0.74c-5.551,0-7.401-1.851-7.401-7.401v-25.72h14.433
	v-6.476h-14.433v-14.617l-10.917,4.07v10.731h-6.291v6.477h6.291v27.755c0,9.621,3.701,13.322,13.138,13.322
	C283.097,334.276,285.318,333.721,292.533,331.871"/>
<path fill="#FFFFFF" d="M325.469,325.95c-2.405,0.556-4.811,0.74-7.216,0.74c-5.921,0-8.882-2.405-8.882-7.401
	c0-4.07,2.591-6.661,7.401-7.216c2.405-0.37,3.33-0.37,8.512-0.556v14.433H325.469z M336.016,333.536v-31.27
	c0-7.031-0.926-10.177-3.516-12.768c-2.591-2.221-7.031-3.7-11.842-3.7c-4.256,0-9.437,0.925-18.318,3.146v5.921
	c4.626-0.74,10.361-1.48,14.617-1.48c6.106,0,8.512,2.035,8.512,7.401v4.996c-4.996,0-8.696,0.185-12.768,0.555
	c-9.621,0.925-14.432,5.551-14.432,14.062c0,8.326,5.551,13.877,14.247,13.877c3.516,0,6.291-0.74,13.322-3.516v2.961h10.177
	V333.536z"/>
<path fill="#FFFFFF" d="M377.832,325.58c-2.775,0.556-4.995,0.74-7.4,0.74c-8.512,0-13.508-5.736-13.508-15.728
	c0-10.917,5.366-17.208,14.617-17.208c2.036,0,4.441,0.185,6.291,0.555V325.58L377.832,325.58z M388.749,333.536v-70.682h-10.917
	v25.534c-3.7-1.48-6.661-2.22-9.991-2.22c-12.768,0-22.204,10.731-22.204,25.164c0,14.062,7.401,22.943,19.059,22.943
	c3.146,0,6.106-0.74,13.507-3.7v2.775h10.547V333.536z"/>
<path fill="#FFFFFF" d="M427.976,331.871v-6.291c-2.405,0.37-4.996,0.74-7.031,0.74c-5.551,0-7.401-1.851-7.401-7.401v-25.72h14.433
	v-6.476h-14.433v-14.617l-10.916,4.07v10.731h-6.291v6.477h6.291v27.755c0,9.621,3.7,13.322,13.137,13.322
	C418.539,334.276,420.76,333.721,427.976,331.871"/>
<path fill="#FFFFFF" d="M465.907,269.145H454.62v64.576h11.287V269.145z M503.468,333.536l-25.349-35.341l24.794-29.05h-12.212
	l-24.425,30.716l22.759,33.675H503.468L503.468,333.536z"/>
<path fill="#FFFFFF" d="M541.584,310.038c0,11.842-4.07,18.133-11.286,18.133c-7.587,0-11.473-6.106-11.473-18.318
	c0-11.287,4.071-17.763,11.287-17.763C537.698,292.09,541.584,298.381,541.584,310.038 M553.057,309.482
	c0-14.803-8.512-23.684-22.389-23.684c-14.433,0-23.129,9.437-23.129,25.534c0,14.617,8.511,23.499,22.389,23.499
	C544.36,334.646,553.057,325.21,553.057,309.482 M527.153,273.031c0-3.7-1.851-5.736-5.552-5.736c-3.886,0-5.921,2.036-5.921,5.922
	c0,3.7,1.851,5.551,5.736,5.551C525.116,278.767,527.153,276.731,527.153,273.031 M544.545,273.031c0-3.7-1.851-5.736-5.551-5.736
	c-3.886,0-5.921,2.036-5.921,5.922c0,3.7,1.85,5.551,5.735,5.551C542.324,278.767,544.545,276.731,544.545,273.031"/>
<rect x="562.864" y="262.854" fill="#FFFFFF" width="10.916" height="70.682"/>
<path fill="#FFFFFF" d="M626.698,333.536v-30.159c0-6.847-0.74-10.178-3.146-13.138c-2.221-2.775-6.661-4.626-11.102-4.626
	c-4.07,0-7.216,0.74-15.357,3.886v-2.961h-10.547v46.813h10.917v-38.486c3.7-0.74,6.476-1.11,8.881-1.11
	c7.217,0,9.622,2.775,9.622,10.917v28.68h10.731V333.536z"/>
<rect x="0" y="205.125" fill="#1A171B" width="9.251" height="185.031"/>
<path fill="#1A171B" d="M88.815,319.474c-0.185-1.296,1.665-1.666,1.665-3.146c0-3.701,2.035,0.185,2.591,2.035
	c0.37,1.48-0.556,2.59-1.851,2.775C89.925,321.324,88.999,320.769,88.815,319.474 M96.216,319.474
	c-0.186-1.296,1.665-1.666,1.665-3.146c0-3.701,2.035,0.185,2.591,2.035c0.37,1.48-0.556,2.59-1.851,2.775
	C97.326,321.324,96.401,320.769,96.216,319.474 M103.802,319.474c-0.185-1.296,1.665-1.48,1.665-3.146
	c0-3.701,2.036,0.185,2.591,2.035c0.37,1.48-0.555,2.59-1.851,2.775C104.912,321.324,103.802,320.769,103.802,319.474
	 M111.203,319.474c-0.185-1.296,1.665-1.48,1.665-3.146c0-3.701,2.035,0.185,2.591,2.035c0.37,1.48-0.555,2.59-1.851,2.775
	C112.314,321.324,111.203,320.769,111.203,319.474 M85.115,310.777c-0.186-1.295,1.665-1.665,1.665-3.146
	c0-3.7,2.035,0.186,2.59,2.036c0.37,1.479-0.555,2.59-1.85,2.775C86.224,312.443,85.115,311.887,85.115,310.777 M92.515,310.777
	c-0.185-1.295,1.666-1.665,1.666-3.146c0-3.7,2.035,0.186,2.59,2.036c0.37,1.479-0.555,2.59-1.85,2.775
	C93.625,312.443,92.7,311.887,92.515,310.777 M99.916,310.777c-0.185-1.295,1.666-1.665,1.666-3.146c0-3.7,2.035,0.186,2.59,2.036
	c0.37,1.479-0.555,2.59-1.851,2.775C101.212,312.443,100.102,311.887,99.916,310.777 M107.503,310.777
	c-0.186-1.479,1.665-1.665,1.665-3.33c0-3.7,2.035,0.185,2.59,2.035c0.37,1.48-0.555,2.591-1.85,2.775
	C108.613,312.443,107.503,311.887,107.503,310.777 M114.904,310.777c-0.185-1.295,1.666-1.665,1.666-3.146
	c0-3.7,2.035,0.186,2.59,2.036c0.37,1.479-0.555,2.59-1.85,2.775C116.014,312.443,115.089,311.887,114.904,310.777 M92.515,327.801
	c-0.185-1.295,1.666-1.665,1.666-3.146c0-3.701,2.035,0.185,2.59,2.035c0.37,1.48-0.555,2.591-1.85,2.775
	C93.625,329.466,92.7,329.095,92.515,327.801 M107.503,327.801c-0.186-1.48,1.665-1.665,1.665-3.331c0-3.7,2.035,0.186,2.59,2.036
	c0.37,1.479-0.555,2.59-1.85,2.775C108.613,329.466,107.503,329.095,107.503,327.801 M85.115,288.574l2.59,4.625l2.221-4.625
	l2.221,4.625l2.59-4.625v11.287h-9.621V288.574z M86.039,291.534v7.217h7.771v-7.401l-1.665,3.146l-2.406-4.256l-2.22,4.626
	L86.039,291.534z M98.251,291.534v7.217h7.771v-7.401l-1.665,3.146l-2.221-4.256l-2.221,4.44L98.251,291.534z M97.511,288.574
	l2.591,4.625l2.035-4.625l2.221,4.625l2.59-4.625v11.287h-9.437V288.574z M110.649,291.534v7.217h7.771v-7.401l-1.85,3.33
	l-2.035-4.44l-2.221,4.626L110.649,291.534z M109.723,288.574l2.591,4.625l2.221-4.625l2.22,4.625l2.591-4.625v11.287h-9.437
	v-11.287H109.723z M130.076,252.493c-1.11,0-2.22,0.925-2.22,2.22c0,1.296,0.925,2.221,2.22,2.221s2.221-0.925,2.221-2.221
	C132.297,253.418,131.371,252.493,130.076,252.493 M74.012,252.493c-1.295,0-2.22,0.925-2.22,2.22c0,1.296,1.109,2.221,2.22,2.221
	s2.221-0.925,2.221-2.221C76.233,253.418,75.308,252.493,74.012,252.493 M61.06,255.268c-1.479,0.74-2.59,2.22-2.035,4.811
	c3.886-1.851,8.326-1.851,12.397-0.555c-1.11-2.591-2.591-4.071-4.812-5.551C64.946,254.158,62.726,254.343,61.06,255.268
	 M65.131,263.224c1.85,1.11,2.59,0.555,4.625,0.37c0.926-0.185,2.036-0.185,3.146,0c-0.185-0.555-0.555-1.295-0.739-2.035
	C69.942,262.484,67.536,263.224,65.131,263.224 M138.958,263.224c-2.221,0-4.811-0.74-7.031-1.665
	c-0.186,0.74-0.556,1.48-0.74,2.035c1.11-0.185,2.221,0,3.146,0C136.367,263.779,137.108,264.519,138.958,263.224 M143.214,255.268
	c-1.666-0.926-3.886-1.11-5.552-1.295c-2.22,1.295-3.7,2.96-4.811,5.551c4.071-1.296,8.512-1.296,12.397,0.555
	C145.804,257.488,144.694,256.009,143.214,255.268 M143.769,254.343c2.961,1.666,2.961,4.256,2.221,7.217
	c-4.071-2.221-8.327-2.405-12.582-0.926c-0.186,0-0.186,0.186-0.37,0.186c2.405,0.925,5.551,1.851,7.771,1.295l1.666-0.37
	c-0.74,0.74-1.48,1.666-2.405,2.221c-2.221,1.48-3.146,0.925-5.552,0.555c-1.479-0.185-2.775,0-4.07,0.186
	c-0.185,0.185-0.37,0.37-0.555,0.555c-15.543,3.516-12.212,16.838-3.701,19.983c5.366,2.035,14.433-0.185,14.062-2.035
	c0-0.555-0.185-1.48-0.185-2.035c0.739-0.74,1.109-1.295,1.295-1.295c0.185,0,0.74,1.85,3.7,3.146
	c19.799,8.881,37.007,7.771,37.191,7.771c1.295,0.186-5.551,8.327-9.252,9.067c-2.775,0.74-10.731,0.74-31.27-4.626
	c-1.11-0.186-2.405-1.296-2.221-1.851c-0.74,0.185-1.665,0.37-1.665,0.37c0.74,3.516,1.851,5.181,10.547,8.882
	c8.142,3.516,18.503,6.476,19.983,7.031c1.479,0.555-1.851,5.365-7.957,6.105c-3.7,0.37-12.952-1.85-23.128-5.181
	c-1.11-0.37-1.48-1.48-1.851-2.221c-0.556,0.186-1.296,0.37-1.296,0.37c0.556,2.221,0.926,4.812,6.477,8.696
	c4.811,3.516,13.507,6.847,17.022,7.957c2.036,0.74-3.516,5.181-7.4,4.811c-5.736-0.555-14.062-3.886-20.909-7.586
	c-0.74-0.37-1.11-1.851-1.295-2.036c-0.555,0.186-1.11,0.186-1.11,0.186s-0.37,2.96,0.74,4.626
	c2.961,4.44,7.216,7.956,20.168,13.322c2.221,0.925-2.59,4.255-6.291,4.07c-8.326-0.185-18.133-5.181-22.943-9.066
	c-1.11-0.925-1.295-2.591-1.295-2.591s-0.926,0.37-1.851,0.926c0,0,0.37,2.96,2.405,5.551c1.851,2.59,3.886,4.626,6.291,6.846
	c3.7,3.331,12.952,11.472,12.952,11.472c-0.37,0.556-2.591,3.701-2.961,4.071c-5.365-4.256-13.507-8.512-16.467-10.177
	c-3.331-1.665-9.622-5.181-8.882-3.146c2.221,6.105,5.921,13.322,6.846,15.173c-2.405-1.11-6.291-1.666-7.586-1.851
	c-0.185,0.185-0.555,0.925-0.74,1.11l0.925,0.555c-2.96,7.401-6.105,12.212-6.105,12.212s-3.146-4.811-6.106-12.212l0.926-0.555
	c-0.186-0.186-0.556-0.926-0.74-1.11c-1.295,0.185-5.181,0.74-7.586,1.851c0.925-1.851,4.44-9.067,6.846-15.173
	c0.74-2.035-5.551,1.295-8.882,3.146c-2.96,1.665-11.102,5.921-16.468,10.177c-0.37-0.37-2.405-3.516-2.96-4.071
	c0,0,9.251-7.956,12.952-11.472c2.405-2.22,4.44-4.44,6.291-6.846c2.035-2.775,2.405-5.551,2.405-5.551
	c-0.925-0.556-1.851-0.926-1.851-0.926s-0.185,1.851-1.295,2.591c-4.811,3.886-14.617,8.882-22.943,9.066
	c-3.701,0-8.697-3.146-6.291-4.07c12.952-5.366,17.207-8.696,20.168-13.322c1.11-1.666,0.74-4.626,0.74-4.626s-0.556,0-1.11-0.186
	c0,0-0.37,1.48-1.295,2.036c-6.847,3.7-15.173,7.031-20.909,7.586c-3.886,0.37-9.437-4.256-7.4-4.811
	c3.515-1.11,12.212-4.626,17.022-7.957c5.551-3.885,5.736-6.476,6.476-8.696c0,0-0.739-0.185-1.295-0.37
	c-0.185,0.74-0.74,1.851-1.851,2.221c-10.361,3.331-19.428,5.551-23.129,5.181c-6.291-0.555-9.621-5.551-7.956-6.105
	c1.665-0.556,12.027-3.701,19.983-7.031c8.696-3.701,9.807-5.366,10.547-8.882c0,0-0.925,0-1.665-0.37
	c0.185,0.74-1.11,1.665-2.221,1.851c-20.538,5.366-28.495,5.366-31.271,4.626c-3.7-0.926-10.546-8.882-9.251-9.067
	c0.185,0,17.393,1.11,37.191-7.771c3.146-1.296,3.516-3.146,3.7-3.146s0.555,0.739,1.295,1.295c0,0.555-0.185,1.48-0.185,2.035
	c-0.186,1.851,8.696,4.256,14.062,2.035c8.511-3.33,11.842-16.468-3.701-19.983c-0.185,0-0.37-0.185-0.555-0.555
	c-1.295-0.186-2.591-0.37-4.071-0.186c-2.405,0.37-3.146,0.926-5.551-0.555c-0.925-0.555-1.665-1.48-2.405-2.221l1.665,0.37
	c2.406,0.37,5.366-0.37,7.771-1.295c-0.185,0-0.37-0.186-0.37-0.186c-4.44-1.479-8.511-1.109-12.582,0.926
	c-0.925-2.961-0.74-5.551,2.221-7.217c1.665-0.925,3.886-1.109,5.735-1.295c1.11-0.74,2.036-1.48,2.591-1.48
	c2.035-0.37,4.07-0.739,6.106-0.739c4.07-0.186,7.216,0,9.621,1.479c1.11,0.556,2.405,0.74,2.405,0.926
	c0,0.185-1.11,0.185-1.665,0.37c-0.925,0.185-1.665,0.925-1.48,0.925c2.221,1.665,12.952,2.405,18.133,19.983
	c4.996-17.578,15.913-18.318,18.134-19.983c0.185-0.186-0.556-0.74-1.48-0.925c-0.556-0.186-1.665-0.186-1.665-0.37
	c0-0.186,1.295-0.37,2.405-0.926c2.405-1.295,5.735-1.479,9.621-1.479c2.035,0,4.071,0.185,6.106,0.739
	c0.555,0.186,1.48,0.74,2.59,1.48C139.883,253.233,141.918,253.418,143.769,254.343 M81.969,315.589
	c0,10.177,8.881,17.763,20.168,17.763s20.354-7.586,20.354-17.763v-11.657H81.969V315.589z M81.969,302.451h40.521v-16.468H81.969
	V302.451z M136.183,370.543c-1.296,0-2.405,1.11-2.405,2.405s1.109,2.405,2.405,2.405c1.295,0,2.405-1.11,2.405-2.405
	S137.478,370.543,136.183,370.543 M136.183,369.432c1.85,0,3.33,1.48,3.33,3.33c0,1.851-1.48,3.331-3.33,3.331
	c-1.851,0-3.331-1.48-3.331-3.331C132.852,370.913,134.332,369.432,136.183,369.432 M139.698,363.511l5.735,4.07
	c0.186,0,0.186,0.186,0.186,0.186c0.37,0.185,1.11,0,1.48-0.556c0.369-0.555,0.369-1.11,0-1.48h-0.186l0,0l-5.736-4.07l-2.96-0.555
	L139.698,363.511z M144.879,368.508l-5.736-4.071l-2.96-0.555l1.665,2.775l5.736,4.07l0,0c0.37,0.186,1.109,0.186,1.479-0.37
	c0.37-0.555,0.37-1.11,0-1.48C144.879,368.508,144.879,368.508,144.879,368.508L144.879,368.508z M146.36,368.877
	c0.185,0.556,0,1.296-0.37,1.851c-0.74,0.926-2.035,1.296-2.961,0.74l0,0l-6.105-4.256l-3.146-4.995l4.44,0.925l-2.405-3.886
	l4.44,0.925l-2.405-3.886l5.736,1.11l5.921,4.256c1.109,0.74,1.109,2.221,0.37,3.146c-0.37,0.556-0.926,0.925-1.666,0.925
	c0.186,0.556,0,1.296-0.37,1.851C147.469,368.322,146.914,368.692,146.36,368.877 M147.655,364.806c0.37,0.186,1.11,0,1.48-0.555
	c0.37-0.556,0.37-1.296-0.186-1.666l-5.921-3.885l-3.146-0.74l1.665,2.59l5.736,4.071
	C147.655,364.806,147.655,364.806,147.655,364.806 M68.091,370.543c-1.295,0-2.405,1.11-2.405,2.405s0.925,2.405,2.405,2.405
	c1.296,0,2.405-1.11,2.405-2.405S69.387,370.543,68.091,370.543 M68.091,369.432c1.851,0,3.331,1.48,3.331,3.33
	c0,1.851-1.48,3.331-3.331,3.331c-1.85,0-3.33-1.48-3.33-3.331C64.761,370.913,66.241,369.432,68.091,369.432 M64.575,363.511
	l1.666-2.591l-2.961,0.556l-5.921,4.07l0,0c0,0,0,0-0.186,0c-0.37,0.37-0.37,0.925,0,1.48c0.37,0.555,0.926,0.74,1.48,0.555
	c0,0,0,0,0.186-0.185L64.575,363.511z M59.395,368.508L59.395,368.508c-0.185,0-0.185,0.185-0.185,0.185
	c-0.37,0.37-0.37,0.925,0,1.48c0.37,0.555,1.109,0.74,1.479,0.37l0,0l5.736-4.071l1.665-2.775l-2.96,0.556L59.395,368.508z
	 M57.914,368.877c-0.555,0-1.295-0.369-1.665-0.925c-0.37-0.555-0.555-1.295-0.37-1.851c-0.555,0-1.295-0.37-1.665-0.925
	c-0.74-0.925-0.556-2.405,0.37-3.146l6.105-4.256l5.736-1.11l-2.405,3.886l4.44-0.925l-2.405,3.886l4.44-0.926l-2.96,4.996
	l-5.921,4.071l0,0c-0.926,0.739-2.405,0.369-2.961-0.74C57.914,370.173,57.73,369.432,57.914,368.877 M56.619,364.806
	L56.619,364.806l5.921-4.256l1.665-2.59l-3.146,0.74l-5.735,4.07c-0.556,0.37-0.556,1.11-0.186,1.665
	C55.509,364.806,56.065,364.992,56.619,364.806 M124.156,274.696c-0.74-0.185-0.185-1.295,0.37-0.925
	c14.803,6.291,30.345-9.437,22.574-24.424c-7.031-13.878-26.645-12.027-32.196,1.295c-0.185,0.74-1.295,0.185-0.925-0.37
	c5.736-14.247,26.645-16.282,34.046-1.48C156.351,264.705,139.883,281.173,124.156,274.696 M91.035,229.364l6.105,8.142l0.74-0.926
	l-5.735-7.956C91.776,228.808,91.406,228.994,91.035,229.364 M88.445,231.769c0.37-0.74,0.925-1.48,1.48-2.221l-0.37-0.37
	c0.925-0.74,1.851-1.479,2.775-2.035l6.106,8.512l1.85-2.775v-7.217c0,0,0-0.555,0.74-0.555c0.37,0,0.926-1.11,0.556-1.48
	s-1.296,0.186-1.48,0.556c-0.186,0.555-0.556,0.555-0.556,0.555h-1.665v-3.146h1.665c0,0,0.556,0,0.556,0.37
	c0.185,0.37,1.11,0.74,1.48,0.555c0.37-0.37-0.186-1.295-0.556-1.479c-0.555-0.186-0.555-0.556-0.555-0.556v-1.48h2.775v1.48
	c0,0,0,0.37-0.556,0.556c-0.37,0.185-0.925,1.109-0.555,1.479s1.295-0.185,1.48-0.555c0.185-0.555,0.555-0.37,0.555-0.37h1.665
	v2.961h-1.665c0,0-0.37,0-0.555-0.556c-0.186-0.37-1.11-0.74-1.48-0.555c-0.37,0.37,0,1.479,0.555,1.479
	c0.74,0,0.74,0.556,0.74,0.556v7.401l1.851,2.775l5.921-8.326c1.11,0.555,2.035,1.109,2.775,2.035l-0.37,0.37
	c0.74,0.74,1.11,1.48,1.48,2.22l2.591-1.665l-4.812,13.508H90.665l-4.812-13.508L88.445,231.769z M101.397,231.399l0.74-0.925
	l0.555,0.925v-4.07h-1.295V231.399z M106.393,236.395l0.74,0.925l6.105-8.142c-0.37-0.37-0.74-0.555-1.11-0.74L106.393,236.395z
	 M116.199,232.694l-9.252,6.291l-4.996-6.846l-4.811,6.846l-9.251-6.291l3.516,9.807h21.463L116.199,232.694z M62.726,350.004
	l-5.736,3.886l-35.156-49.958c-0.925-0.37-2.035-0.37-2.96-0.555c-0.186,0.925-0.556,2.035-0.556,2.96l35.156,49.958l-5.551,4.071
	c-0.926,0.555,0.185,2.035,1.11,1.48l5.921-4.071l8.881-6.105C64.575,351.114,63.651,349.449,62.726,350.004 M62.17,349.264
	c2.035-1.296,4.256,1.85,2.221,3.33l-8.882,6.106l-5.921,4.07c-2.035,1.295-4.256-1.851-2.221-3.331l4.626-3.33l-34.415-49.218
	c-0.37-0.556,0.555-4.071,0.555-4.626c0,0,1.295,0.185,2.405,0.37c0.37,0,2.035,0.37,2.221,0.74L57.36,352.41L62.17,349.264z
	 M79.933,274.696c-15.728,6.661-32.01-9.991-24.054-25.719c7.586-14.803,28.31-12.768,34.046,1.48
	c0.185,0.739-0.74,1.109-0.926,0.369c-5.551-13.507-25.164-15.357-32.195-1.295c-7.586,14.617,7.957,30.346,22.759,24.054
	C80.118,273.401,80.673,274.326,79.933,274.696 M178.185,310.038l2.035-4.441c3.146-6.661,9.621-2.22,4.44,3.146l-3.33,3.331
	c0.74,0.555,2.22,2.22,1.48,3.33c-0.74,0.926-2.406,0.186-3.146,0l-30.53,43.667l-3.701-2.59l30.346-43.853
	c-0.556-0.555-1.851-2.035-1.11-2.96C175.409,308.742,177.445,309.668,178.185,310.038 M184.846,306.892
	c2.405-3.331-1.296-5.736-3.516-0.926l-2.221,4.811c-0.37,0.74-0.555,0.556-0.925,0.37c-0.186-0.185-2.221-1.109-2.591-0.925
	c-0.185,0.555,1.295,1.851,1.665,2.221L146.73,356.11l2.035,1.48l30.53-43.667c0.369,0.185,2.22,1.109,2.59,0.925
	c0-0.556-1.295-1.851-1.665-2.221s-0.556-0.37,0-0.925l3.7-3.701C184.29,307.447,184.66,307.261,184.846,306.892"/>
</svg>
