<?xml version="1.0" encoding="utf-8"?>
<!-- Generator: Adobe Illustrator 16.0.0, SVG Export Plug-In . SVG Version: 6.00 Build 0)  -->
<!DOCTYPE svg PUBLIC "-//W3C//DTD SVG 1.1//EN" "http://www.w3.org/Graphics/SVG/1.1/DTD/svg11.dtd">
<svg version="1.1" id="Ebene_1" xmlns="http://www.w3.org/2000/svg" xmlns:xlink="http://www.w3.org/1999/xlink" x="0px" y="0px"
	 viewBox="0 0 841.889 595.281" enable-background="new 0 0 841.889 595.281"
	 xml:space="preserve">
<polygon fill="#1A171B" points="95.13,414.958 95.13,523.765 118.533,523.765 118.533,478.479 153.486,478.479 153.486,524.069 
	176.888,524.069 176.888,415.261 153.486,415.261 153.486,457.509 118.23,457.509 118.23,414.958 "/>
<path fill="#1A171B" d="M238.282,523.765V414.958h23.402v48.629c0.607-0.912,0.912-1.216,1.216-1.52
	c9.118-15.196,17.932-30.697,27.05-45.894c0.304-0.607,1.52-1.216,2.128-1.216c8.813,0,17.628,0,27.05,0
	c-0.608,0.912-1.216,1.823-1.52,2.432c-9.727,13.98-19.452,27.962-29.481,41.942c-1.216,1.823-1.216,3.039-0.305,4.863
	c10.638,19.147,20.972,38.295,31.609,57.442c0.304,0.608,0.607,1.216,1.216,2.432h-13.069c-3.951,0-7.902,0-11.549,0
	c-1.824,0-2.736-0.607-3.344-2.128c-6.99-13.98-14.285-27.961-21.275-41.942c-0.304-0.607-0.607-1.216-1.216-2.431
	c-2.735,3.343-5.166,6.686-7.598,10.029c-0.608,0.607-0.608,1.823-0.608,2.735c0,10.029,0,20.363,0,30.394v3.039H238.282z"/>
<path fill="#737476" d="M644.334,143.547L644.334,143.547c-0.304-3.343-0.304-6.687-0.304-9.726
	c-0.305-6.99-5.167-13.069-11.246-14.589c-6.382-1.52-12.765,1.216-16.108,7.295c-6.078,10.941-6.078,22.49-0.607,33.736
	c3.039,6.382,9.118,9.118,15.5,8.206c6.079-0.912,10.941-5.774,12.157-12.461C644.031,152.057,644.031,147.802,644.334,143.547
	 M644.031,173.028c-0.305,0.304-0.608,0.304-0.608,0.608c-7.902,12.765-30.393,13.677-41.942-0.912
	c-4.863-6.078-7.294-13.069-7.902-20.667c-1.216-11.854,0-23.099,6.687-33.433c6.079-9.118,14.589-14.285,25.834-14.589
	c7.902,0,14.285,3.039,19.148,9.726c0.304,0.608,0.607,0.912,1.52,1.824c0.304-3.647,0.607-6.687,0.911-10.03h15.805v10.941
	c0,18.844,0,37.688,0,56.228c0,5.774-0.607,11.854-1.52,17.628c-2.735,13.98-11.245,22.491-25.227,25.53
	c-11.854,2.432-23.402,1.52-34.648-2.735c-1.823-0.607-2.431-1.52-1.823-3.647c1.216-3.951,2.128-7.902,3.344-11.549
	c4.862,1.52,9.422,3.343,14.284,4.255c3.647,0.607,7.599,0.607,11.245,0c8.814-1.52,14.589-8.51,15.197-18.236
	C644.031,180.323,644.031,176.676,644.031,173.028"/>
<path fill="#A1A2A4" d="M56.835,301.288c-4.255-16.109-8.51-32.217-12.461-48.021c-4.255,15.805-8.206,31.912-12.462,48.021H56.835z
	 M1.52,345.662c1.823-6.079,3.343-11.55,5.167-17.324c8.813-29.481,17.324-59.267,25.834-88.748
	c0.607-1.824,1.216-2.735,3.343-2.432c6.383,0.304,12.462,0,18.844,0c1.52,0,2.432,0.304,2.735,2.127
	c10.03,34.952,20.364,69.905,30.394,105.161c0,0.304,0,0.911,0.304,1.52c-3.951,0-7.902,0-11.854,0
	c-2.431,0-5.471,0.607-7.294-0.608c-1.52-1.215-1.52-4.255-2.432-6.687c-1.823-6.99-3.951-13.677-5.774-20.667
	c-0.608-1.52-1.216-2.432-3.039-2.432c-8.814,0-17.933,0-26.746,0c-1.824,0-2.432,0.608-2.735,2.128
	c-2.432,8.813-4.863,17.324-7.295,25.834c-0.304,0.912-1.216,1.823-1.823,1.823C13.373,345.662,7.598,345.662,1.52,345.662"/>
<path fill="#1A171B" d="M540.085,524.069h-23.402v-2.735c0-13.98,0-28.266,0-42.246c0-2.735-0.304-5.471-0.912-7.902
	c-1.216-4.255-3.951-7.295-8.51-7.902s-8.51,1.216-10.941,5.167c-1.52,2.735-2.735,5.774-2.735,8.813
	c-0.304,14.589-0.304,29.481-0.304,44.07v3.039h-23.707v-78.718h19.756c0.304,3.343,0.911,6.687,1.216,9.422
	c1.823-1.52,3.646-3.039,5.471-4.56c10.941-9.422,28.873-8.51,37.383,2.128c4.56,5.774,6.687,12.461,6.687,19.451
	c0.305,17.021,0.305,34.041,0.305,51.061C540.085,523.157,540.085,523.462,540.085,524.069"/>
<path fill="#737476" d="M218.527,183.666V69.692h18.844v45.894c0.912-1.216,1.52-1.824,2.128-2.432
	c6.99-8.511,18.539-11.55,28.569-7.599c8.813,3.344,12.765,10.334,14.893,18.844c0.607,3.039,1.216,6.383,1.216,9.726
	c0,15.805,0,31.609,0,47.414c0,0.607,0,1.215,0,1.823h-18.54v-3.039c0-14.285,0-28.266,0-42.551c0-2.735-0.304-5.774-1.216-8.51
	c-1.216-5.167-4.255-8.814-9.726-9.726c-5.471-0.912-10.03,0.911-13.373,5.166c-2.432,3.04-3.647,6.383-3.647,10.334
	c0,15.196,0,30.394,0,45.59v3.039H218.527z"/>
<path fill="#1A171B" d="M379.611,482.734c-0.305-5.166-0.912-11.549-4.56-17.323c-2.127-3.04-4.862-4.863-8.813-4.863
	c-5.471,0-8.814,3.039-11.246,7.902c-2.432,4.862-3.039,10.029-3.039,15.196c0,6.079,0.607,12.157,3.647,17.932
	c1.52,3.04,3.646,5.471,6.99,6.383c5.774,1.823,10.941-0.912,13.98-7.294C378.698,495.5,379.611,490.029,379.611,482.734
	 M403.62,484.254c0,6.687-0.911,13.069-3.343,19.148c-6.99,17.324-23.707,23.706-38.6,22.187
	c-12.765-1.216-22.795-6.99-28.873-18.235c-8.206-15.501-6.99-41.335,7.294-53.796c8.511-7.599,18.844-10.334,30.09-9.422
	c20.363,1.52,31.305,16.716,33.128,33.433C403.317,479.391,403.317,481.823,403.62,484.254"/>
<polygon fill="#1A171B" points="0.608,414.958 0.608,435.321 27.05,435.321 27.05,523.765 50.452,523.765 50.452,435.321 
	76.895,435.321 76.895,414.958 "/>
<path fill="#848587" d="M358.943,254.786c-4.559-1.216-8.813-2.735-13.069-3.344c-6.382-0.911-12.765-1.215-18.539,3.04
	c-6.383,4.559-7.295,13.677-1.52,19.147c3.343,3.039,7.901,5.471,11.853,7.599c5.775,3.343,12.462,6.382,17.933,10.333
	c7.902,5.471,11.854,13.981,11.549,23.403c-0.304,12.461-5.167,23.402-20.971,29.178c-13.981,5.166-27.962,3.646-41.335-1.521
	c-1.823-0.911-2.735-1.823-2.128-3.951c1.216-3.95,2.128-8.206,3.04-12.157c4.862,1.521,9.118,3.344,13.677,4.256
	c5.471,0.911,10.941,0.911,16.412,0.304c6.383-0.912,10.638-4.56,12.157-11.246c1.216-6.382-0.607-11.853-6.078-15.5
	c-4.256-2.735-8.511-5.167-13.069-7.295c-7.599-3.646-14.893-7.598-19.756-14.589c-10.638-14.893-5.167-35.256,11.854-42.854
	c13.069-6.079,26.442-4.863,39.815,0c0.607,0.304,1.52,1.52,1.215,2.127C361.374,245.971,360.158,250.531,358.943,254.786"/>
<path fill="#737476" d="M438.876,144.459c0-6.383-0.911-12.765-3.951-18.54c-5.774-10.941-18.843-10.941-25.226-0.607
	c-2.735,4.862-3.951,10.029-4.255,15.5c-0.608,7.599,0.304,14.893,3.951,21.579c1.823,3.647,4.862,6.687,8.813,7.902
	c6.383,2.128,12.765-0.607,16.716-7.598C437.66,157.528,438.876,151.145,438.876,144.459 M385.689,145.066
	c0.304-9.117,1.823-18.235,7.294-25.834c8.207-11.854,19.756-16.108,33.736-14.893c19.148,1.52,30.09,16.717,31.609,34.345
	c0.911,10.333-0.304,20.06-5.471,29.481c-6.99,12.461-21.275,18.844-35.256,17.323c-17.628-2.127-28.874-15.196-31.001-32.216
	C385.992,150.233,385.689,147.498,385.689,145.066"/>
<path fill="#737476" d="M562.273,144.459c0.304-6.383-0.912-12.461-3.647-17.932c-1.823-3.647-4.862-6.687-9.118-7.902
	c-6.99-2.128-13.372,0.912-17.02,8.206c-5.774,12.157-5.774,24.314,0.304,36.472c1.823,3.647,4.559,6.383,8.814,7.902
	c6.382,2.127,12.765-0.608,16.412-7.295C561.361,157.528,562.576,151.145,562.273,144.459 M509.084,145.066
	c0.305-9.422,1.824-18.235,7.295-26.138c8.206-11.55,19.756-16.108,33.736-14.893c19.451,1.52,30.089,17.021,31.608,34.345
	c0.912,10.333-0.304,20.363-5.471,29.48c-6.99,12.157-21.274,18.844-35.256,17.021c-17.628-2.128-28.873-15.196-31.001-32.217
	C509.389,150.233,509.389,147.802,509.084,145.066"/>
<path fill="#737476" d="M323.383,183.666h-19.147v-78.11h16.108c0.304,3.344,0.607,6.99,1.215,11.245
	c0.912-1.215,1.216-1.823,1.824-2.431c9.726-12.766,29.481-13.981,39.814-2.735c4.863,5.471,7.295,12.157,7.295,19.147
	c0.304,17.324,0.304,34.648,0.304,51.972c0,0.305,0,0.608-0.304,0.912h-18.54v-3.039c0-14.285,0-28.569,0-42.854
	c0-2.735-0.304-5.471-0.912-7.902c-1.216-5.471-4.559-9.422-10.333-10.333c-5.775-0.608-10.334,1.52-13.677,6.382
	c-2.128,3.04-3.04,6.687-3.04,10.638c0,14.893,0,29.481,0,44.374v2.735H323.383z"/>
<path fill="#848587" d="M583.244,277.581c2.127-1.823,4.559-3.647,6.686-5.471c10.334-8.206,26.442-8.206,35.257,1.823
	c3.951,4.56,5.774,9.726,6.687,15.501c0.304,2.735,0.607,5.774,0.607,8.51c0,14.893,0,29.785,0,44.678
	c0,2.432-0.607,3.04-3.039,3.04c-4.255-0.305-8.511-0.305-12.766,0c-2.127,0-2.735-0.608-2.735-2.735c0-14.589,0-29.178,0-43.463
	c0-2.735-0.304-5.471-0.911-7.902c-1.216-5.471-4.56-9.118-10.334-10.029c-5.774-0.912-10.638,1.216-13.98,6.078
	c-2.128,3.04-3.04,6.383-3.04,10.03c0,15.196,0,30.089,0,45.286c0,2.127-0.607,3.039-3.039,3.039c-4.255-0.304-8.813-0.304-13.069,0
	c-2.432,0-3.039-0.608-3.039-3.039c0-21.579,0-42.854,0-64.434c0-2.736-0.304-5.775-0.607-8.511c0-1.52,0.607-2.127,2.127-2.127
	c3.951,0,7.902,0,11.854,0c1.52,0,2.128,0.607,2.128,2.127C582.636,272.718,582.94,275.453,583.244,277.581"/>
<path fill="#737476" d="M684.453,218.618c-1.52-5.167-3.04-10.334-4.56-15.5c3.647-2.128,7.295-3.951,10.638-6.383
	c4.559-3.039,7.902-7.599,10.334-12.461c1.216-2.432,1.216-4.56,0.304-6.991c-6.687-18.539-13.677-36.775-20.363-55.315
	c-2.128-5.471-3.951-10.941-6.079-16.716h20.668c5.471,18.844,11.245,37.688,16.716,56.835c0.608-2.432,1.216-4.559,1.824-6.687
	c4.255-16.108,8.51-32.521,12.461-48.629c0.304-1.216,0.607-1.823,2.127-1.823c5.775,0,11.854,0,17.933,0
	c-0.608,2.127-1.216,3.951-1.824,5.774c-7.294,21.275-14.589,42.551-21.883,63.521c-3.647,10.334-8.206,20.06-15.196,28.874
	c-5.774,7.294-13.069,12.461-22.188,14.588C685.365,218.314,685.061,218.314,684.453,218.618"/>
<path fill="#737476" d="M87.836,135.949h31.608c-0.304-2.432-0.304-4.56-0.911-6.687c-1.52-5.775-4.56-10.638-10.941-11.854
	c-6.079-1.216-11.854,1.216-15.197,6.99C90.572,127.743,89.356,131.694,87.836,135.949 M88.748,149.322
	c-0.305,12.461,6.99,19.147,16.108,20.971c7.598,1.216,14.893,0.304,22.187-1.823c0.912-0.304,1.823-0.608,3.039-0.912
	c0.912,4.56,1.824,8.511,2.735,13.069c-4.862,2.432-9.726,3.343-14.588,3.951c-6.991,0.911-13.981,1.216-20.972-0.304
	c-12.157-2.735-20.667-10.03-24.618-22.188c-4.56-14.589-3.647-28.873,4.255-42.246c8.51-13.981,25.53-19.756,40.727-13.677
	c8.206,3.039,13.069,9.422,16.108,17.323c3.039,7.902,3.343,16.108,2.735,24.619c-0.304,1.823-1.52,1.823-2.735,1.823H91.787h-3.039
	V149.322z"/>
<path fill="#848587" d="M762.564,298.248c0.304-4.255-0.305-8.206-2.128-11.854c-1.823-3.646-4.863-6.078-8.814-6.99
	c-10.333-2.432-20.971,7.902-19.451,18.844H762.564L762.564,298.248z M731.563,311.317c-0.608,11.245,6.078,19.452,15.804,21.275
	c7.902,1.52,15.501,0.607,23.099-1.52c0.608-0.304,1.216-0.304,2.128-0.608c0.304,0,0.304,0,0.912,0
	c0.607,3.647,1.52,7.295,2.127,10.941c0,0.608-0.911,1.824-1.823,2.128c-4.559,1.216-8.814,2.432-13.373,3.344
	c-6.687,0.911-13.373,0.911-19.756-0.608c-13.677-3.343-22.187-11.854-25.226-25.227c-3.344-13.677-2.128-26.746,5.471-38.903
	c5.471-9.118,13.677-13.98,24.314-15.196c20.971-2.432,31.608,11.55,34.04,27.354c0.607,4.56,0.607,9.422,0.607,13.981
	c0,3.343-0.304,3.343-3.343,3.343h-41.639C733.69,311.317,732.778,311.317,731.563,311.317"/>
<path fill="#848587" d="M534.007,298.248c0.304-4.559-0.608-8.51-2.432-12.157c-1.823-3.343-4.862-5.774-8.51-6.687
	c-10.334-2.432-20.972,7.902-19.452,18.844C513.34,298.248,523.369,298.248,534.007,298.248 M503.31,311.317
	c-1.216,9.422,4.863,17.628,12.157,20.06c8.51,3.039,16.717,1.823,25.227-0.304c1.216-0.304,2.432-0.608,3.951-1.216
	c0.912,3.951,1.52,7.599,2.127,11.245c0,0.608-0.911,1.824-1.823,2.128c-4.559,1.216-8.813,2.432-13.373,3.343
	c-6.687,0.912-13.373,0.912-19.755-0.607c-13.678-3.344-22.188-11.854-25.227-25.227c-3.344-13.677-2.128-27.05,5.471-39.511
	c5.471-8.814,13.373-13.678,23.706-14.894c21.275-2.431,31.306,11.246,34.041,25.227c0.911,5.775,0.911,11.55,1.216,17.324
	c0,2.128-1.521,2.432-3.04,2.432c-13.98,0-27.961,0-41.639,0H503.31z"/>
<polygon fill="#737476" points="0,74.858 0,91.271 27.354,91.271 27.354,183.362 46.501,183.362 46.501,91.271 74.159,91.271 
	74.159,74.858 "/>
<rect x="423.376" y="409.791" fill="#1A171B" width="23.099" height="113.975"/>
<path fill="#A1A2A4" d="M197.555,331.68c0,4.255,0,8.511,0,12.766c0,0.607-0.911,1.216-1.216,1.52
	c-7.294,1.52-14.588,2.432-21.579-0.304c-7.294-2.735-10.637-8.814-11.549-16.108c-0.608-5.471-0.608-10.941-0.608-16.413
	c0-9.726,0-19.147,0-28.873c0-2.432-0.607-3.039-3.039-3.039c-2.432,0.304-4.862,0-7.598,0v-13.678c2.735,0,5.774,0,8.51,0
	c1.52,0,2.432-0.607,2.127-2.127c0-3.344,0-6.99,0-10.334c0-0.912,0.608-2.127,1.216-2.127c5.471-1.824,10.941-3.344,17.021-5.167
	v19.755h17.628v13.678c-4.863,0-9.726,0-14.589,0c-2.432,0-3.039,0.607-3.039,3.039c0,10.941,0,22.188,0,33.129
	c0,2.735,0.607,5.774,1.216,8.51c0.912,3.951,3.951,5.774,7.902,6.078C192.084,331.984,194.212,331.68,197.555,331.68"/>
<path fill="#A1A2A4" d="M211.233,329.249c4.559,1.521,8.813,3.04,13.372,3.951c3.344,0.608,6.991,0.305,10.334-0.304
	c3.344-0.607,5.774-3.039,6.383-6.687c0.607-3.647-0.608-6.687-3.647-8.813c-2.432-1.52-5.167-3.04-7.598-4.256
	c-3.647-2.127-7.599-3.646-11.246-6.078c-14.589-9.726-11.245-30.394,3.039-37.384c11.246-5.471,22.795-4.255,34.345,0.607
	c-1.216,4.56-2.432,8.814-3.647,13.373c-5.471-2.735-10.941-4.255-16.716-3.951c-6.079,0.305-10.334,5.775-8.206,10.942
	c0.911,1.823,2.432,3.646,4.255,4.559c2.432,1.52,5.167,2.735,7.599,3.951c2.431,1.216,5.166,2.432,7.294,3.647
	c8.51,4.862,13.069,12.461,12.157,22.187c-0.912,10.941-7.294,17.324-17.628,20.363c-10.638,3.04-21.275,2.128-31.305-2.127
	c-2.128-0.912-2.432-1.824-1.824-3.951C209.712,335.935,210.321,332.593,211.233,329.249"/>
<path fill="#848587" d="M794.172,329.553c4.559,1.216,8.51,3.039,12.766,3.646c3.343,0.608,6.99,0.305,10.637-0.304
	c3.344-0.607,5.775-3.039,6.687-6.383c0.608-3.646-0.304-7.294-3.646-9.422c-2.432-1.52-5.167-2.735-7.599-4.255
	c-3.951-2.127-8.206-4.255-11.854-6.687c-12.765-9.118-10.333-27.354,1.824-35.256c6.687-4.255,13.98-5.774,21.579-4.559
	c4.255,0.607,8.51,2.127,12.765,3.039c1.52,0.304,1.824,1.216,1.216,2.735c-1.216,3.647-2.128,6.99-3.039,10.638
	c-2.128-0.912-3.647-1.824-5.167-2.128c-3.951-0.607-8.206-1.52-12.157-1.216c-3.647,0-6.383,2.128-7.599,6.079
	c-0.911,3.343,0,6.382,3.04,8.51c2.735,1.823,5.774,3.039,8.813,4.863c3.951,2.432,8.51,4.255,11.854,6.99
	c11.854,9.422,9.726,30.089-4.559,37.08c-6.991,3.343-14.285,4.559-21.884,3.343c-4.559-0.607-9.118-2.127-13.677-3.039
	c-2.432-0.608-3.343-1.824-2.432-4.56C792.653,335.935,793.565,332.593,794.172,329.553"/>
<path fill="#737476" d="M205.761,107.075c-1.215,4.863-2.127,9.422-3.039,13.677c-3.951-0.607-7.902-1.823-11.854-1.823
	c-11.853-0.304-19.451,5.471-22.49,17.324c-1.824,6.99-1.52,13.98,1.216,20.667c3.646,9.422,13.068,14.893,23.402,13.373
	c3.343-0.607,6.383-1.216,10.029-2.127c0.912,4.559,1.521,9.117,2.432,13.677c-4.862,2.127-10.029,3.039-15.5,3.343
	c-8.511,0.608-16.412-0.607-23.707-4.559c-6.383-3.647-11.245-8.814-13.98-15.501c-5.774-13.98-5.774-27.961,1.52-41.639
	c6.078-11.549,16.412-17.323,29.178-19.147c6.687-0.911,13.373-0.304,20.059,1.52C203.634,106.164,204.546,106.468,205.761,107.075"
	/>
<path fill="#848587" d="M434.318,282.443c-4.255-0.607-8.206-1.215-12.157-1.52c-12.157-0.911-19.756,7.599-22.187,17.021
	c-1.824,7.295-1.52,14.285,0.911,21.275c4.255,10.638,13.981,14.893,24.314,13.373c3.039-0.304,5.774-1.216,8.814-1.823
	c0.304,0.607,0.304,1.52,0.607,2.431c0.608,2.735,0.912,5.471,1.52,8.206c0.304,2.128,0,3.04-2.432,3.647
	c-6.99,1.824-13.98,3.039-21.274,2.128c-6.687-0.912-12.766-2.735-18.236-6.687c-7.902-5.774-11.853-13.677-13.677-23.099
	c-1.823-10.941-0.912-21.58,4.56-31.306c6.382-11.549,16.716-17.324,29.785-19.147c6.382-0.912,12.765,0,18.843,1.52
	c2.128,0.608,3.344,1.52,2.432,3.951C435.533,275.758,434.925,279.1,434.318,282.443"/>
<path fill="#848587" d="M702.689,282.443c-4.255-0.607-8.206-1.215-12.157-1.52c-12.157-0.911-19.756,7.599-22.187,17.021
	c-2.128,9.118-1.824,18.236,3.951,26.139c5.166,7.294,12.765,9.422,21.579,8.51c3.039-0.304,5.774-1.216,9.117-1.823
	c0.305,2.127,0.912,4.255,1.216,6.687c1.216,7.598,3.04,6.686-5.774,8.813c-8.51,2.128-17.021,2.128-25.227-0.607
	c-10.029-3.04-17.02-9.422-20.971-19.148c-5.167-13.373-5.167-27.05,1.823-40.119c6.383-11.853,16.716-17.628,29.785-19.147
	c6.383-0.912,12.766,0,18.844,1.52c2.432,0.608,3.039,1.52,2.432,3.951C704.208,275.758,703.601,279.1,702.689,282.443"/>
<rect x="474.133" y="69.692" fill="#737476" width="18.843" height="113.974"/>
<path fill="#A1A2A4" d="M101.513,267.551h13.98c1.824,0,1.824,1.521,1.824,2.432c0.304,3.344,0.304,6.687,0.607,9.726
	c0,0.608,0.305,0.912,0.608,1.521c4.862-10.334,11.854-16.717,24.314-15.197v17.628c-2.735,0-5.167-0.304-7.599,0
	c-8.51,1.521-14.589,8.814-14.589,17.324c0,13.678,0,27.051,0,40.728v3.039h-19.147
	C101.513,319.523,101.513,293.689,101.513,267.551"/>
<path fill="#848587" d="M450.426,306.759c0-11.854,0-24.011,0-36.168c0-2.432,0.607-3.04,3.039-3.04c4.56,0.305,8.814,0,13.373,0
	c1.823,0,2.735,0.608,2.735,2.432c0,24.314,0,48.63,0,73.248c0,1.823-0.607,2.432-2.432,2.432c-4.559,0-9.118,0-13.677,0
	c-2.127,0-2.735-0.912-2.735-2.735C450.426,330.769,450.426,318.612,450.426,306.759"/>
<path fill="#1A171B" d="M338.276,422.252c0-6.078,4.862-10.941,11.245-10.941c6.079,0,10.638,4.863,10.638,10.941
	c0,6.383-4.559,11.246-10.638,11.246C343.138,433.498,338.276,428.635,338.276,422.252"/>
<path fill="#1A171B" d="M371.1,422.556c0-6.383,4.56-10.941,10.638-10.941c6.079,0,10.638,4.559,10.638,10.941
	c0,6.382-4.559,11.245-10.638,11.245C375.659,433.802,371.1,428.938,371.1,422.556"/>
<path fill="#848587" d="M459.544,255.393c-5.167,0.305-10.03-3.343-10.03-10.029c-0.304-5.774,4.863-10.334,10.638-10.03
	c5.774,0,10.03,4.56,10.03,10.334C470.182,251.138,465.622,255.393,459.544,255.393"/>
</svg>
