<?xml version="1.0" encoding="utf-8"?>
<!-- Generator: Adobe Illustrator 16.0.0, SVG Export Plug-In . SVG Version: 6.00 Build 0)  -->
<!DOCTYPE svg PUBLIC "-//W3C//DTD SVG 1.1//EN" "http://www.w3.org/Graphics/SVG/1.1/DTD/svg11.dtd">
<svg version="1.1" id="Layer_1" xmlns="http://www.w3.org/2000/svg" xmlns:xlink="http://www.w3.org/1999/xlink" x="0px" y="0px"
	 width="240.145px" height="283.465px" viewBox="0 -32.07 240.145 283.465" enable-background="new 0 -32.07 240.145 283.465"
	 xml:space="preserve">
<g>
	<polygon points="51.71,0.001 51.71,11.672 84.647,11.672 84.647,78.709 96.319,78.709 96.319,0 	"/>
	<path d="M51.793,35.781l-0.049,12.192c-0.167,5.29-2.357,10.24-6.17,13.942c-3.819,3.71-8.849,5.754-14.16,5.754
		c-5.311,0-10.339-2.044-14.159-5.754c-3.812-3.702-6.002-8.653-6.169-13.942L11.038,0H0l0.038,48.06
		c0.19,8.216,3.542,15.919,9.438,21.689c5.904,5.779,13.696,8.961,21.938,8.961c8.243,0,16.034-3.182,21.94-8.961
		c5.896-5.77,9.248-13.472,9.438-21.689l0.037-12.279H51.793L51.793,35.781z"/>
	<path d="M139.246,47.387l0.13,0.181c1.569,2.172,2.398,4.734,2.398,7.409c0,6.465-4.843,11.888-11.266,12.615l-18.516,0.27V78.71
		l19.038-0.239c5.876-0.484,11.329-3.143,15.354-7.488c4.053-4.371,6.283-10.056,6.283-16.006c0-2.614-0.423-5.157-1.254-7.59
		H139.246L139.246,47.387z"/>
	<path d="M126.411,0c-0.308,0-0.611,0.01-0.914,0.022l-5.503,0.007l0.015,10.81l5.733,0.042c0.251-0.013,0.47,0.012,0.669,0.012
		c7,0,12.694,5.695,12.694,12.695c0,6.466-4.842,11.889-11.265,12.617l-7.817-0.015v10.887l8.341,0.013
		c5.875-0.484,11.328-3.145,15.354-7.492C147.769,35.225,150,29.54,150,23.589C150,10.582,139.418,0,126.411,0L126.411,0z"/>
	<path d="M14.768,211.24H7.662v2.082h4.533l0,0c0,1.961-1.298,3.406-3.847,3.406c-2.866,0-4.631-2.279-4.631-5.66
		c0-3.527,1.984-5.562,4.436-5.562c2.573,0,3.553,1.838,3.553,3.357l2.842-0.441c0-2.352-1.689-5.609-6.442-5.609
		c-4.361,0-7.497,3.232-7.497,8.256c0,4.998,2.891,8.257,7.228,8.257c2.131,0,3.7-0.734,4.63-2.132
		c0.099,1.054,0.222,1.765,0.271,1.961h2.034v-7.914H14.768z M32.726,207.467c-2.083,0-3.259,1.176-3.797,2.646
		c-0.589-1.617-1.984-2.646-4.042-2.646c-2.034,0-3.186,1.127-3.749,2.549h-0.024c0-0.516-0.147-1.766-0.368-2.522l-2.303,0.098
		v11.563h2.989v-6.004c0-1.42,0.783-3.11,2.597-3.11c1.47,0,2.229,0.955,2.229,2.451v6.663h2.989v-6.004
		c0-1.42,0.81-3.11,2.622-3.11c1.47,0,2.229,0.955,2.229,2.451v6.663h2.988v-7.057C37.087,209.402,35.519,207.467,32.726,207.467
		L32.726,207.467z M47.622,207.443c-1.911,0-3.087,0.854-3.749,1.934v-7.521h-2.989v17.299h2.255
		c0.171-0.735,0.294-1.862,0.294-2.327h0.023c0.637,1.42,1.96,2.476,3.994,2.476c3.16,0,5.414-2.304,5.414-5.904
		C52.865,209.672,50.611,207.443,47.622,207.443L47.622,207.443z M46.961,216.801c-2.034,0-3.087-1.592-3.087-3.086v-0.662
		c0-1.422,1.029-3.111,2.989-3.111c1.837,0,2.964,1.349,2.964,3.455C49.827,215.453,48.7,216.801,46.961,216.801L46.961,216.801z
		 M67.173,202.982v6.617h-7.546v-6.617H56.54v16.172h3.087v-7.008h7.546v7.008h3.088v-16.172H67.173L67.173,202.982z"/>
	<path d="M7.001,172.221H1.39v16.172h3.087v-4.875h2.916c3.724,0,6.248-1.938,6.248-5.66
		C13.641,174.156,11.166,172.221,7.001,172.221L7.001,172.221z M6.829,181.041H4.477v-6.346h2.229c2.499,0,3.822,1.201,3.822,3.162
		C10.529,179.914,9.181,181.041,6.829,181.041L6.829,181.041z M22.583,176.68c-1.715,0-2.67,1.178-3.111,2.646h-0.073
		c0-0.49-0.147-1.789-0.368-2.596l-2.303,0.098v11.564h2.988v-5.734c0-2.082,1.201-3.135,2.499-3.135
		c0.516,0,0.907,0.121,1.25,0.367l0.761-2.916C23.734,176.779,23.195,176.68,22.583,176.68L22.583,176.68z M31.819,176.68
		c-3.626,0-6.051,2.475-6.051,5.953c0,3.48,2.425,5.906,6.051,5.906c3.651,0,6.052-2.426,6.052-5.906
		C37.871,179.154,35.47,176.68,31.819,176.68L31.819,176.68z M31.819,186.088c-1.837,0-3.014-1.42-3.014-3.455
		c0-2.057,1.176-3.502,3.014-3.502s3.014,1.445,3.014,3.502C34.833,184.668,33.657,186.088,31.819,186.088L31.819,186.088z
		 M44.902,173.029c0-1.102-0.882-1.91-1.984-1.91c-1.078,0-1.936,0.809-1.936,1.91c0,1.078,0.856,1.863,1.936,1.863
		C44.021,174.893,44.902,174.107,44.902,173.029L44.902,173.029z M38.336,190.695l-0.856,2.082c0,0,0.71,0.734,2.4,0.734
		c3.087,0,4.459-1.91,4.459-4.925V176.73l-2.988,0.098v11.955c0,1.396-0.516,2.205-1.837,2.205
		C38.777,190.988,38.336,190.695,38.336,190.695L38.336,190.695z M54.164,186.211c-2.034,0-3.21-1.176-3.479-2.891h8.036
		c0,0,0.121-0.465,0.121-1.201c0-3.111-1.935-5.439-5.315-5.439c-3.553,0-5.856,2.475-5.856,5.953c0,3.48,2.328,5.906,6.175,5.906
		c2.327,0,4.018-0.906,4.899-2.059l-1.519-1.642C56.736,185.428,55.83,186.211,54.164,186.211L54.164,186.211z M53.527,179.008
		c1.519,0,2.474,1.104,2.499,2.621h-5.341C50.954,180.012,52.032,179.008,53.527,179.008L53.527,179.008z M70.162,188.393h3.651
		l-5.023-6.053l4.533-5.512h-3.406l-3.332,4.287h-1.445v-10.021H62.15v17.299h2.989v-4.975h1.127L70.162,188.393L70.162,188.393z
		 M83.882,185.379c0,0-0.71,0.637-1.96,0.637c-1.372,0-1.983-0.76-1.983-2.399v-4.484h4.188v-2.303h-4.188v-3.431l-2.916,0.121v3.31
		H75.16v2.303h1.789v4.582c0,3.209,1.47,4.826,4.483,4.826c2.106,0,3.308-0.81,3.308-0.81L83.882,185.379L83.882,185.379z
		 M101.596,176.705c-2.083,0-3.26,1.176-3.799,2.646c-0.588-1.617-1.983-2.646-4.042-2.646c-2.033,0-3.185,1.127-3.749,2.547h-0.023
		c0-0.514-0.147-1.764-0.368-2.521l-2.303,0.099v11.563h2.988v-6.004c0-1.422,0.784-3.111,2.598-3.111
		c1.47,0,2.229,0.955,2.229,2.451v6.664h2.989v-6.004c0-1.422,0.808-3.111,2.621-3.111c1.47,0,2.229,0.955,2.229,2.451v6.664h2.989
		v-7.057C105.957,178.641,104.389,176.705,101.596,176.705L101.596,176.705z M120.755,186.016c-0.122,0.023-0.269,0.049-0.416,0.049
		c-0.49,0-0.687-0.194-0.687-0.782v-4.068c0-2.815-1.837-4.532-5.146-4.532c-3.11,0-4.998,1.471-4.998,3.649
		c0,0.612,0.147,1.078,0.147,1.078l2.646-0.441c-0.049-0.12-0.098-0.268-0.098-0.465c0-0.955,0.784-1.519,2.205-1.519
		c1.544,0,2.328,0.855,2.328,2.156v0.562h-0.196c-4.557,0.074-7.375,0.881-7.375,3.65c0,1.912,1.397,3.186,3.92,3.186
		c2.476,0,3.455-1.201,3.798-1.863c0.196,1.25,1.029,1.84,2.523,1.84c0.809,0,1.471-0.174,1.471-0.174L120.755,186.016
		L120.755,186.016z M113.87,186.26c-1.15,0-1.788-0.439-1.788-1.225c0-1.152,1.323-1.641,4.459-1.691h0.196v0.98
		C116.737,185.305,115.683,186.26,113.87,186.26L113.87,186.26z M130.58,176.68c-2.107,0-3.284,1.178-3.872,2.572h-0.073
		c0-0.514-0.146-1.715-0.367-2.521l-2.304,0.099v11.563h2.989v-6.004c0-1.445,0.857-3.16,2.77-3.16c1.471,0,2.254,0.98,2.254,2.476
		v6.688h2.988v-7.104C134.965,178.615,133.422,176.68,130.58,176.68L130.58,176.68z M149.763,186.016
		c-0.122,0.023-0.27,0.049-0.416,0.049c-0.489,0-0.687-0.194-0.687-0.782v-4.068c0-2.815-1.838-4.532-5.146-4.532
		c-3.111,0-4.998,1.471-4.998,3.649c0,0.612,0.146,1.078,0.146,1.078l2.646-0.441c-0.049-0.12-0.099-0.268-0.099-0.465
		c0-0.955,0.784-1.519,2.205-1.519c1.543,0,2.327,0.855,2.327,2.156v0.562h-0.196c-4.557,0.074-7.374,0.881-7.374,3.65
		c0,1.912,1.396,3.186,3.92,3.186c2.476,0,3.454-1.201,3.798-1.863c0.195,1.25,1.028,1.84,2.523,1.84c0.809,0,1.47-0.174,1.47-0.174
		L149.763,186.016L149.763,186.016z M142.879,186.26c-1.151,0-1.789-0.439-1.789-1.225c0-1.152,1.323-1.641,4.459-1.691h0.196v0.98
		C145.745,185.305,144.692,186.26,142.879,186.26L142.879,186.26z M159.514,186.457h-2.549c-1.421,0-2.058-0.197-2.058-0.857
		c0-0.393,0.318-0.639,0.907-0.76c0.61,0.195,1.322,0.318,2.105,0.318c3.062,0,5.097-1.715,5.097-4.24
		c0-0.979-0.294-1.836-0.857-2.498c0.931-0.195,2.328-1.201,2.328-3.137l-2.304-0.588c0,1.299-0.318,2.352-1.127,2.77
		c-0.833-0.49-1.911-0.76-3.161-0.76c-3.037,0-5.07,1.691-5.07,4.213c0,1.227,0.465,2.23,1.298,2.99
		c-0.882,0.295-1.617,1.004-1.617,2.082c0,0.957,0.49,1.666,1.274,2.107c-1.226,0.418-1.96,1.2-1.96,2.352
		c0,1.838,1.911,3.062,6.125,3.062c4.777,0,6.223-1.787,6.223-3.699C164.169,187.559,162.307,186.457,159.514,186.457
		L159.514,186.457z M155.668,180.918c0-1.199,0.906-2.008,2.278-2.008c1.372,0.025,2.278,0.832,2.278,2.033
		c-0.024,1.201-0.932,2.01-2.328,1.984C156.525,182.928,155.643,182.119,155.668,180.918L155.668,180.918z M157.946,191.357
		c-2.475,0-3.431-0.441-3.431-1.373c0-0.711,0.563-1.226,2.353-1.226h2.303c1.495,0,2.23,0.244,2.23,1.177
		C161.401,190.891,160.47,191.357,157.946,191.357L157.946,191.357z M172.622,186.211c-2.033,0-3.209-1.176-3.479-2.891h8.036
		c0,0,0.122-0.465,0.122-1.201c0-3.111-1.936-5.439-5.315-5.439c-3.554,0-5.856,2.475-5.856,5.953c0,3.48,2.328,5.906,6.176,5.906
		c2.326,0,4.019-0.906,4.899-2.059l-1.52-1.642C175.195,185.428,174.288,186.211,172.622,186.211L172.622,186.211z M171.985,179.008
		c1.519,0,2.475,1.104,2.499,2.621h-5.342C169.413,180.012,170.491,179.008,171.985,179.008L171.985,179.008z M194.893,176.705
		c-2.083,0-3.26,1.176-3.798,2.646c-0.589-1.617-1.983-2.646-4.044-2.646c-2.032,0-3.185,1.127-3.747,2.547h-0.024
		c0-0.514-0.147-1.764-0.367-2.521l-2.303,0.099v11.563h2.988v-6.004c0-1.422,0.783-3.111,2.598-3.111
		c1.47,0,2.229,0.955,2.229,2.451v6.664h2.989v-6.004c0-1.422,0.809-3.111,2.621-3.111c1.47,0,2.229,0.955,2.229,2.451v6.664h2.988
		v-7.057C199.254,178.641,197.686,176.705,194.893,176.705L194.893,176.705z M208.931,186.211c-2.032,0-3.209-1.176-3.479-2.891
		h8.036c0,0,0.123-0.465,0.123-1.201c0-3.111-1.938-5.439-5.317-5.439c-3.552,0-5.854,2.475-5.854,5.953
		c0,3.48,2.326,5.906,6.174,5.906c2.326,0,4.018-0.906,4.899-2.059l-1.52-1.642C211.504,185.428,210.597,186.211,208.931,186.211
		L208.931,186.211z M208.294,179.008c1.52,0,2.476,1.104,2.499,2.621h-5.341C205.722,180.012,206.8,179.008,208.294,179.008
		L208.294,179.008z M223.533,176.68c-2.107,0-3.283,1.178-3.871,2.572h-0.073c0-0.514-0.146-1.715-0.367-2.521l-2.304,0.099v11.563
		h2.989v-6.004c0-1.445,0.857-3.16,2.769-3.16c1.471,0,2.255,0.98,2.255,2.476v6.688h2.988v-7.104
		C227.919,178.615,226.375,176.68,223.533,176.68L223.533,176.68z M239.287,185.379c0,0-0.711,0.637-1.96,0.637
		c-1.372,0-1.985-0.76-1.985-2.399v-4.484h4.19v-2.303h-4.19v-3.431l-2.915,0.121v3.31h-1.861v2.303h1.788v4.582
		c0,3.209,1.471,4.826,4.483,4.826c2.107,0,3.308-0.81,3.308-0.81L239.287,185.379L239.287,185.379z"/>
	<path d="M11.484,141.459v9.826c0,2.424-1.47,3.822-3.553,3.822c-2.132,0-3.603-1.398-3.603-3.849v-9.801H1.243v9.826
		c0,3.942,2.67,6.516,6.688,6.516c3.944,0,6.64-2.571,6.64-6.516v-9.826L11.484,141.459L11.484,141.459z M22.509,157.629h3.088
		v-13.621h5.021v-2.549H17.511v2.549h4.997V157.629L22.509,157.629z M42.698,149.201v-0.072c0.931-0.146,2.597-0.908,2.597-3.309
		c0-2.793-2.058-4.361-5.487-4.361h-6.102v16.17h6.762c3.553,0,5.537-1.592,5.537-4.385S43.8,149.373,42.698,149.201L42.698,149.201
		z M42.208,146.09c0,1.275-0.956,2.182-2.769,2.182h-2.67v-4.41h2.449C41.252,143.861,42.208,144.645,42.208,146.09L42.208,146.09z
		 M39.954,155.229h-3.185v-4.803h2.964c1.812,0,3.161,0.811,3.161,2.477C42.894,154.494,41.668,155.229,39.954,155.229
		L39.954,155.229z"/>
</g>
</svg>
